<?xml version='1.0' encoding='utf-8'?>
<svg xmlns="http://www.w3.org/2000/svg" data-name="Ebene 1" viewBox="0 0 511.98 512"> <defs> <style>.cls-1 { fill: #f9d053; } .cls-1, .cls-2, .cls-3, .cls-4, .cls-5, .cls-6 { stroke-width: 0px; } .cls-2 { fill: #3b92b0; } .cls-3 { fill: #1a364f; } .cls-4 { fill: #43a6be; } .cls-5 { fill: #dededd; } .cls-6 { fill: #e1f1f2; }</style> </defs> <path class="cls-5" d="M286.49,444.5c-.13-.14-1.13.27-1.5-.25-1.02-1.44-1-5.71-.25-7.75h-47l-3-1c-27.6-.72-57.74-4.57-82-14-14.67-5.7-28.25-13.78-41-23-9.75,1.78-7.62-1.7-8.25-2.5,7.29,3.17,12.95-1.75,11-9.25q12.12-14.12,24.25-28.25h18.5q-7.87,17.62-15.75,35.25c-13.87,2.67-5.84,18.89,4.25,13.75,5.65-2.88,3.11-9.21,3.25-9.75,1.2-4.63,19.08-39.22,20-43.5.41-1.9-.51-3.09-.5-3.25.03-.65.96-.85,1-1.5,14.26,13.27,33.9,21.49,52.5,26.25v27c-17.37,9.96-.65,29.68,11.25,20.25,6.66-5.28,5.44-17.67-3.25-19.75q.37-13.12.75-26.25c19.01,2.81,38.49,2.52,57.5-.5.69,7.49,1.54,54.5.75,57.25-.79,2.74-6.61,4.6-2.5,10.75Z"/> <path class="cls-5" d="M344.99,358.01c.99.61,1.6.29,2.5,1.25,1.47,1.57,14.67,33.94,18,39-5.91,8.45,8.95,15.95,13.5,7.5,4.37-8.12-5.98-11.41-6.5-12-1.28-1.45-13.99-30.64-15.75-35.25h18.5q12.87,14.37,25.75,28.75c-2.68,7.33,4.1,13.05,10.5,8.75-.1.13.52,1.17-2.5,2.25,4.05,1.4-4.53,1.12-6.75.25-17.57,15.99-41.94,25.67-64,31-2.74.66-9.41.57-11.5,2.5-6.97.49-22.47,2.39-27.25,5.5-.44-1.16-2.82-2.64-3-3.25-.82-2.83.62-49.89,0-59,15.46-4.78,34.55-13.37,47-23.75.36,1.53.2,5.97.5,6.75.41,1.06.96-.28,1-.25Z"/> <path class="cls-3" d="M343.49,351.51c-12.45,10.38-31.54,18.97-47,23.75.62,9.11-.82,56.17,0,59,.18.61,2.56,2.09,3,3.25,2.86,7.51-5.2,15-13,7-4.11-6.15,1.71-8.01,2.5-10.75.79-2.75-.06-49.76-.75-57.25-19.01,3.02-38.49,3.31-57.5.5q-.37,13.12-.75,26.25c8.69,2.08,9.91,14.47,3.25,19.75-11.9,9.44-28.62-10.29-11.25-20.25v-27c-18.6-4.76-38.23-12.98-52.5-26.25-4.88-4.54-9.94-11.76-14.25-17h-41.5c-.67.32-1.68,7.03-5.75,9-12.28,5.94-23.22-10.94-12-18.5,8.98-6.05,14.43,1.77,15.25,2,2.7.77,41.02-.58,49.5,0,25.88,36.37,63.23,47.46,106.5,45.5,35.47-1.61,70.8-18.38,90-49h20.5c11.69-20.72,30.62,3.83,16.5,12-9.86,5.71-14.65-3.7-15.5-4-1.46-.51-13.7.38-17.5,0-4.26,8.41-10.51,15.96-17.75,22Z"/> <path class="cls-3" d="M234.99,80.51c2.35,5.86-1.89,8.76-2,9.25-.87,4.1.67,43.23-.5,53.5.66,1.41,12.57-1.15,14.75-1.25,11.22-.53,22.43.17,33.5,2q.12-16.87.25-33.75c-14.94-7.1-6.68-26.99,7.75-22.75,8.25,2.42,11.77,17.67.25,22.75v35c20.4,8.32,42.39,19.62,57.5,36,8.39,9.1,18.23,24.53,4.75,23.25-2.56-15.25-33.78-36.77-47.5-43.5-42.28-20.73-88.81-11.56-123,20-11.43,10.55-16.27,20.68-17.25,21.75-4.64,5.06-9.75,1.1-5-9,8.98-19.06,45.97-42.54,66.5-48.5-.68-7.68.89-52.4,0-55-.23-.68-7.8-4.43-.5-12.25,3.44-1.15,8.76-1.84,10.5,2.5Z"/> <path class="cls-3" d="M401.49,374c11.47,12.45,16.74,13.27,10,22-6.4,4.3-13.18-1.42-10.5-8.75q-12.87-14.37-25.75-28.75h-18.5c1.76,4.61,14.47,33.8,15.75,35.25.52.59,10.87,3.88,6.5,12-4.55,8.45-19.41.95-13.5-7.5-3.33-5.06-16.53-37.43-18-39-.9-.96-1.51-.63-2.5-1.25-.93-.73-.04-6.8.25-7,1.39-.98,29.73.75,34,0,1.55.39,19.59,20.11,22.25,23Z"/> <path class="cls-3" d="M168.49,351.01c0,.16.91,1.35.5,3.25-.92,4.28-18.8,38.87-20,43.5-.14.54,2.4,6.87-3.25,9.75-10.09,5.14-18.12-11.08-4.25-13.75q7.87-17.62,15.75-35.25h-18.5q-12.12,14.12-24.25,28.25c1.95,7.5-3.71,12.42-11,9.25-8.39-10.73,2.13-12.41,2.75-13,1.92-1.82,3.45-4.55,5.25-6.5,7.74-8.37,14.66-17.45,22.75-25.5h34.25Z"/> <path class="cls-6" d="M169.49,349.51c-.04.65-.97.85-1,1.5h-34.25c-8.09,8.05-15,17.13-22.75,25.5l6-8.75c-5.79-3.53-.07-19.59-9.5-26.25,4.07-1.97,5.08-8.68,5.75-9h41.5c4.3,5.24,9.37,12.46,14.25,17Z"/> <path class="cls-3" d="M106.5,171.01c7.56,4.02,7.09,16.26-1,19.75v19c3.98,4.3,7.42,9.25,12.25,12.75,6.88.54,31.27-.72,34,0,3.32.88,2.9,6.21,0,7-1.76.48-34.7.3-36.5,0-4.3-.72-8.67-5.54-11.75-8.5-.43-.42-7.25-8.08-8-9,3.38-6.49,1.58-13.61,2-20.75-.23-.55-4.55-1.5-6.5-5.25-5.02-9.67,4.93-20.61,15.5-15Z"/> <path class="cls-3" d="M414.99,171.01c6.53,3.27,7.77,11.93,2.5,18-.71.81-3.9,2.01-4,2.25v19.5c-6.06,6.25-11.36,13.31-18.25,18.75-6.29-.5-31.89.66-34,0-2.56-.8-2.96-6.1,0-7,2.15-.65,24.54.49,30.5,0q6.87-7.87,13.75-15.75v-16c-14.06-7.17-4.16-26.59,9.5-19.75Z"/> <path class="cls-3" d="M422.49,273.51c15.36,9.3,1.13,26.44-10.5,18.5-3.84-2.62-3.44-5.81-3.75-6h-37.5c-5.11-1.28-4.3-6.65-.5-7.5,3.93-.88,36.55.82,38.5,0,.75-.31,2.73-8.58,13.75-5Z"/> <path class="cls-3" d="M92,287.51c-2.1-5.04-.6-11.68,5-14,10.45-4.34,13.95,4.66,14.75,5,2.15.91,31.23-1.48,33.25,1.25,7.95,10.72-28.58,4.47-32.25,6.25-2.83,10.89-17.28,9.84-20.75,1.5Z"/> <path class="cls-6" d="M416.49,210.01c-3.2,1.68-.79-.6-3-1v-17.75c.1-.24,3.29-1.44,4-2.25,1.58,1.63,1.4,19.3,1,20.25-.18.43-1.74.61-2,.75Z"/> <path class="cls-5" d="M95.5,212.01c-.08-.1-.95.5-2-1.75.37-2.61.31-18.1,0-19-.29-.86-5.24-2.15-2.5-5.25,1.94,3.74,6.27,4.69,6.5,5.25-.42,7.14,1.38,14.26-2,20.75Z"/> <path class="cls-6" d="M224.49,78.01c-7.3,7.82.27,11.57.5,12.25.89,2.6-.68,47.32,0,55-20.52,5.96-57.52,29.44-66.5,48.5-4.75,10.09.36,14.06,5,9,.98-1.07,5.82-11.2,17.25-21.75,34.19-31.56,80.72-40.73,123-20,13.72,6.73,44.94,28.25,47.5,43.5,13.48,1.28,3.64-14.15-4.75-23.25-15.11-16.38-37.1-27.68-57.5-36v-35c11.52-5.08,8-20.33-.25-22.75-14.43-4.24-22.69,15.65-7.75,22.75q-.12,16.87-.25,33.75c-11.07-1.83-22.28-2.53-33.5-2-2.18.1-14.09,2.66-14.75,1.25,1.17-10.27-.37-49.4.5-53.5.11-.49,4.35-3.39,2-9.25,13.15-.79,33.3-.18,46.25,1.5,3.15.41,7.52,2.85,8.5,3,3.29.49,1.26-1.19,2.5-1,9.85,1.54,19.94,4.64,30,5.5,9.36,2.77,16.91,5.09,25.5,8.5.35.14,2.22-1.6,6.5,3,.95-2.2.48.21,1,.5,10.53,5.83,20.31,12.24,30.5,18.5,1.33,4,6.19,6.14,6.75,6.75.24.27-.87,2.38,4.5,5-.51,1.58,5.76,10.01,8,11.5.31,4.84,2.44,4.8,3,6-2.03,1.94,6.78,11.59,3.5,17,2.96.45,1.19,2.5,1.5,3,.42.68,2.46-.62,2,1.75-13.66-6.84-23.56,12.58-9.5,19.75v16q-6.87,7.87-13.75,15.75c-5.96.49-28.34-.65-30.5,0-2.96.9-2.56,6.2,0,7,2.11.66,27.71-.5,34,0,6.89-5.44,12.19-12.5,18.25-18.75v-1.75c2.21.4-.2,2.68,3,1,.33,10.16-2.91,54.61-2,58.75,1.16,5.29,4.52,2.07,7.25,3.25.93.4.68,1.46.75,1.5-11.02-3.58-13,4.69-13.75,5-1.95.82-34.56-.88-38.5,0-3.8.85-4.61,6.22.5,7.5h37.5c.31.19-.09,3.38,3.75,6-1.8,4.8,3.96,3.62-1.5,7.75,2.03,9.82.31,19.96,0,30l-6.5,9c1.24,2.76-2.14,7.88-.25,8.75,3.39,1.57,2.24-16.39,3.75-7.75-2.44,9.34-4.4,18.38-6,28-.42,2.51-2.34,3.21,0,6.25-2.66-2.89-20.7-22.61-22.25-23-4.27.75-32.61-.98-34,0-.29.2-1.18,6.27-.25,7-.04-.03-.59,1.31-1,.25-.3-.78-.14-5.22-.5-6.75,7.24-6.04,13.49-13.59,17.75-22,3.8.38,16.04-.51,17.5,0,.85.3,5.64,9.71,15.5,4,14.12-8.17-4.8-32.72-16.5-12h-20.5c-19.2,30.62-54.53,47.39-90,49-43.26,1.96-80.61-9.13-106.5-45.5-8.48-.58-46.8.77-49.5,0-.82-.23-6.27-8.05-15.25-2-.36-3.19,5.46-1.81,6-4.25-2.37-7-1.3-14.65-2.5-22-3.57-1.36-13.52-8.34-7.5-9.25,3.47,8.34,17.92,9.39,20.75-1.5,3.67-1.78,40.2,4.47,32.25-6.25-2.02-2.73-31.1-.34-33.25-1.25-.8-.34-4.3-9.34-14.75-5,.11-.96,1.32-1.76,1.5-2.75.64-3.48.3-43.58-1-51.5,1.52-.72,1.32,3.72,6,1.75,3.08,2.96,7.44,7.78,11.75,8.5,1.8.3,34.74.48,36.5,0,2.9-.79,3.32-6.12,0-7-2.72-.72-27.12.54-34,0-4.83-3.5-8.27-8.45-12.25-12.75v-19c8.09-3.49,8.56-15.73,1-19.75.3-3.24-5.08-.6-4-4.25,6.78-36.22,31.49-55.88,63.25-70.75,1.24,1.57,1.34-1.07,2.5-1.5,3.51-1.31,26.96-7.64,31-8.5,5.32-1.14,15.33-2.17,21-2.5,1.43-3.96.95-4.4,4.25-5.5Z"/> <path class="cls-2" d="M190.99,192.01c-4.88,7.3-5.5,22.54,0,24l-.5,1.5c-6.8-8.21-17.77,3.96-9.5,9-3.35,1.15-2.46,5.31-4.75,7.5-2.91-.11-3.25-.34-5.25,1.5-3.56,3.28-1.9,8.2,3,9-2.81,5.1-.86,6.9-1,7.25-.29.72-2.75-.51-3,4.25-4.72.92-5.35,8.02.5,9,.53,6.49-.94,13.6.5,20-14.45-5.13-6.24,21.63,12.5,21.5-.56,2.7-2.72,2.79-2,6.5-8.56-2.79-10.6,7.79-4.75,12.5,5.98,4.81,14.91.53,10.75-7l9.5-.25c.47,3.22-1.08,9.27,1,11.25,2.87,2.73,5.6,0,8-1,.5-.21.84,1.68,1.25-1.5,9.4.3,2.85,5.93,6.25,10,1.15,1.38,3.83,1.85,5.5,1.5,2.14,4.51,3.23.07,4.25-.5,3.66-2.05,6.31,4.25,4.5,6.5-3.2-1.85-3.04,6.19-7,.5-.42-.26-1.72,1.39-1.75,1.5-.44-1.4-2.65,1.42-3.75,2-27.01,14.23-59.46-34.35-61.75-46.25-3.26-16.91,8.53-23.26,8-24.5-23.19-.85-14.42-2.44-16-27.5q4.75-.5,9.5-1c-.25-12.64-1.12-19.29,10.5-26.5-3.96-13.93,10.17-27.16,19.5-36.25-.31,3.15,3.44,4.42,6,5.5Z"/> <path class="cls-3" d="M261.49,174.51c.43,5.42,1.07,36.42.5,38.25-.72,2.31-6.61,3.15-7.5.5-1.06-3.15.99-34.17.5-38.75h6.5Z"/> <path class="cls-3" d="M173.99,244.51c-4.9-.8-6.56-5.72-3-9,7.15-.37,43.66-1.15,46.25-.5,4.67,1.18,4.22,8.86-1,10-2.06.45-40.16-.16-42.25-.5Z"/> <path class="cls-3" d="M190.99,216.01c-5.5-1.46-4.88-16.7,0-24,12.53-18.71,27.74-13.06,25-6.25-.4,1-12.45,6.11-17.5,12.5-1.68,4.06,2.43,20.39-7.5,17.75Z"/> <path class="cls-3" d="M170.99,285.01c3.59,15.88,17.61,8.37,20,13.25,2.67,5.44-3.15,8.22-7.5,8.25-18.74.13-26.95-26.63-12.5-21.5Z"/> <path class="cls-3" d="M205.99,328.51c-2.4,1-5.13,3.73-8,1-.73-4.51-.39-29.26,0-30.75.46-1.76,3.7-3.25,4.25-3.25,6.91-.05,2.53,21.92,3.75,33Z"/> <path class="cls-3" d="M169.99,256.01c.97-.19,18.8-.28,19.75,0,3.19.94,3.54,8.71-1.5,9.5-.88.14-16.87-.35-17.75-.5-5.85-.98-5.22-8.08-.5-9Z"/> <path class="cls-3" d="M181.49,313.01c1.44.47,5.33,4.29,6,5.5,4.16,7.53-4.77,11.81-10.75,7-5.85-4.7-3.81-15.29,4.75-12.5Z"/> <path class="cls-3" d="M218.99,338.51c-1.67.35-4.35-.12-5.5-1.5.83-4.41-2.37-17.82,3.25-19,6.87-1.43,6.43,14.45,5.25,18.25-.17.56-2.45,2.14-3,2.25Z"/> <path class="cls-4" d="M254.99,174.51c.49,4.58-1.56,35.6-.5,38.75.89,2.65,6.78,1.81,7.5-.5.57-1.83-.07-32.83-.5-38.25,6.36-22.81,36.73-17.36,35.75,6,15.04-16.09,27.46.48,38,11,1.61,1.6,4.91,3.08,7.75,6.25,4.3,4.8,12.47,18.06,9.5,24.5,7.08,6.62,9.32,16.03,7.5,25.5.86,2.43,9.86-3.19,11,13.5.42,6.17,1.05,14.49-6.25,16.25-7.17,1.73-13.14-3.06-10.75,1.75.51,1.02,10.65,3,9.5,19-1.37,19.02-41.63,68.44-64.75,48.75-6.91,26.88-31.79,27.34-41.5,1.5-9.79,36.9-41.95,13.39-38.25-2,.03-.11,1.33-1.76,1.75-1.5,3.96,5.69,3.8-2.35,7-.5,1.81-2.25-.84-8.55-4.5-6.5-1.02.57-2.11,5.01-4.25.5.55-.11,2.83-1.69,3-2.25,1.18-3.8,1.62-19.68-5.25-18.25-5.62,1.17-2.42,14.59-3.25,19-3.4-4.07,3.15-9.7-6.25-10-.41,3.18-.75,1.29-1.25,1.5-1.22-11.08,3.16-33.05-3.75-33-.55,0-3.79,1.49-4.25,3.25-.39,1.49-.73,26.24,0,30.75-2.08-1.98-.53-8.03-1-11.25l-9.5.25c-.67-1.21-4.56-5.03-6-5.5-.72-3.71,1.44-3.8,2-6.5,4.35-.03,10.17-2.81,7.5-8.25-2.39-4.88-16.41,2.64-20-13.25-1.44-6.4.03-13.51-.5-20,.88.15,16.87.64,17.75.5,5.04-.79,4.69-8.56,1.5-9.5-.95-.28-18.78-.19-19.75,0,.25-4.76,2.71-3.53,3-4.25.14-.35-1.81-2.14,1-7.25,2.08.34,40.18.95,42.25.5,5.22-1.14,5.67-8.82,1-10-2.59-.65-39.1.13-46.25.5,2-1.84,2.34-1.61,5.25-1.5,2.29-2.19,1.4-6.35,4.75-7.5,5.45,3.32,14.8-2.6,9.5-9l.5-1.5c9.92,2.64,5.82-13.68,7.5-17.75,5.05-6.39,17.1-11.5,17.5-12.5,2.74-6.81-12.47-12.46-25,6.25-2.56-1.08-6.31-2.35-6-5.5,10.37-10.1,18.23-19.48,32.75-7,3.46-28.03,35.32-22.88,37.25-5Z"/> <path class="cls-1" d="m256.24 225.01c28.34-1.31 43.75 31.31 29.25 54.25-10.29 16.28-32.79 20.57-48.25 8.75-24.16-18.48-11.51-61.59 19-63z"/> <path class="cls-3" d="M298.74,235.01c2.15-.47,41.85-.48,44,0,5.14,1.15,6.01,8.82.5,10-2.3.49-44.76.7-47,0-3.56-1.12-2.88-8.82,2.5-10Z"/> <path class="cls-3" d="M278.24,301.01c12.48-2.93,7.1,40.64,8.25,47.75-13.65,13-5.72-19.85-8-32.5-.44-2.46-3.73-5.62-4-7.5-.32-2.29,1.16-7.14,3.75-7.75Z"/> <path class="cls-3" d="M303.24,179.51c8.08-2.03,21.36,11.29,23.25,15.25,2.21,4.63,4.15,24.26-4.75,22.25-7.53-1.7,7.2-24.06-21.75-29.75-1.66-2.54.53-7.06,3.25-7.75Z"/> <path class="cls-3" d="M235.24,301.01c5.52-1.32,8.32,6.32,2.75,11.25-.56,7.24.75,33.12,0,36-.8,3.1-7.03,4.36-8,1.5-.62-1.85-.27-37.07,0-39,.31-2.23,2.92-9.19,5.25-9.75Z"/> <path class="cls-3" d="M256.24,301.51c2.11-.67,5.13.43,5.75,2.75.52,1.96.56,38.55,0,40.5-.83,2.89-7.41,2.83-8,1.5.58-7.88-.77-39.14,0-42,.13-.47,1.84-2.62,2.25-2.75Z"/> <path class="cls-3" d="M299.74,272.51c1.56-.35,30.44-.37,32,0,4.54,1.07,4.59,8.39-.5,9.5-1.56.34-30.44.36-32,0-5.35-1.22-4.19-8.44.5-9.5Z"/> <path class="cls-3" d="M185.24,272.51c1.54-.32,29.96-.35,31.5,0,4.92,1.12,4.43,8.42-1,9.5-1.5.3-29.01.31-30.5,0-5.55-1.14-5.59-8.36,0-9.5Z"/> <path class="cls-3" d="M281.24,173.01c1.5-.33,4.75.66,5.25,2.25.58,1.86.5,37.11,0,39-.88,3.32-7.1,3.76-8,1-.61-1.88-.49-37.59,0-39.5.21-.83,1.93-2.57,2.75-2.75Z"/> <path class="cls-3" d="M233.24,173.01c1.94-.3,4.48,1.79,4.75,2.75.51,1.83.5,36.16,0,38-.91,3.37-6.6,3.37-7.5.5-.58-1.86-.58-37.14,0-39,.12-.39,2.35-2.19,2.75-2.25Z"/> <path class="cls-3" d="M313.24,296.51c1.51-.31,4.75.65,5.25,2.25.45,1.43.48,28.58,0,30-.72,2.14-7.09,2.84-8-.5-.39-1.42-.44-28.09,0-29.5.12-.39,2.32-2.16,2.75-2.25Z"/> <path class="cls-3" d="M290.74,217.01c1.2-.31,22.35-.88,24.25,1.75,7.13,9.91-19.84,8.59-23.75,7.75-5.06-1.08-4.79-8.39-.5-9.5Z"/> <path class="cls-3" d="M327.74,255.51c3.26-.67,20.25-.7,21.75,2.25,4.77,9.37-17.95,8.26-22.25,7.25-4.9-1.15-5.01-8.37.5-9.5Z"/> <path class="cls-3" d="M202.74,217.01c.97-.26,19.05-.3,20,0,3.09.97,3.12,7.96-1,9-.9.23-17.6.23-18.5,0-4.39-1.11-4.12-8.02-.5-9Z"/> <path class="cls-3" d="m216.74 295.51c10.25-2.38 15.01 9.61 7.5 13.5-11.75 6.08-16.52-11.41-7.5-13.5z"/> <path class="cls-3" d="M347.24,284.51c5.87-1.43,6.95,10.89-4,18.5-13.6,9.46-22.14-2.12-16-6.5,2.99-2.13,7.68-.13,11-1.5,2.07-.86,8.07-10.27,9-10.5Z"/> <path class="cls-3" d="m334.24 311.51c12.83-1.98 9.33 17.5-2.5 15-6.84-1.44-4.83-13.87 2.5-15z"/> <path class="cls-3" d="m208.24 253.01c11.91-1.11 12.12 9.62 4.5 12-12.42 3.88-16.53-10.88-4.5-12z"/> <path class="cls-3" d="m293.24 296.01c11.68-2.41 12.61 12.54 4 14-10.43 1.77-11.49-12.46-4-14z"/> <path class="cls-3" d="M298.24,317.51c.88-.09,3,.56,3.5,1,1.22,1.08,4.61,21.78-4.5,20-3.94-.77-3.21-15.94-2.75-17.75.3-1.19,2.55-3.13,3.75-3.25Z"/> <path class="cls-3" d="M303.74,194.01c10.55-1,11.02,16.32-.5,14.5-7.35-1.16-7.34-13.76.5-14.5Z"/> <path class="cls-3" d="m304.24 252.51c11.56-1.73 12.56 11.05 3.5 12.5-11.35 1.82-13.19-11.05-3.5-12.5z"/> <path class="cls-3" d="m209.74 194.01c10.62-2.2 10.56 12.88 2.5 14-9.91 1.38-9.34-12.58-2.5-14z"/> <path class="cls-3" d="M331.74,215.51c9.24-.88,9.8,10.51,3,12-11.27,2.46-13.09-11.04-3-12Z"/> <path class="cls-3" d="m190.49 217.51c5.3 6.4-4.05 12.32-9.5 9-8.27-5.04 2.7-17.21 9.5-9z"/> </svg>