<?xml version="1.0" encoding="utf-8"?>
<!-- Generator: Adobe Illustrator 27.2.0, SVG Export Plug-In . SVG Version: 6.00 Build 0)  -->
<svg version="1.1" id="Layer_1" xmlns="http://www.w3.org/2000/svg" xmlns:xlink="http://www.w3.org/1999/xlink" x="0px" y="0px"
	 viewBox="0 0 512 512" style="enable-background:new 0 0 512 512;" xml:space="preserve">
<style type="text/css">
	.st0{fill:#FF3621;}
</style>
<g>
	<path d="M140.64,379.3v-25.99c0-0.68-0.45-1.13-1.12-1.13h-8.54v-10.17h8.54c0.67,0,1.12-0.45,1.12-1.13v-16.27h12.13v16.27
		c0,0.68,0.45,1.13,1.12,1.13h11.91v10.17h-11.91c-0.67,0-1.12,0.45-1.12,1.13v23.05c0,10.85,3.82,11.75,8.76,11.75
		c1.8,0,4.49-0.23,6.07-0.45v10.62c-2.02,0.23-5.39,0.68-9.21,0.68C153.67,398.74,140.64,398.74,140.64,379.3z M470.44,385.63
		l9.89-5.2c2.25,5.2,6.51,8.59,11.46,8.59c3.82,0,8.09-1.58,8.09-6.33c0-3.16-2.02-4.97-6.74-6.55l-6.74-2.26
		c-9.44-2.94-14.15-8.36-14.15-16.05c0-9.72,8.09-16.95,19.1-16.95c8.76,0,16.18,4.75,19.77,12.21l-9.88,5.42
		c-2.25-4.75-5.84-7.46-10.11-7.46c-4.27,0-7.19,2.26-7.19,5.65c0,2.94,2.25,5.2,6.74,6.55l6.74,2.26
		c9.89,3.16,14.6,8.59,14.6,16.05c0,11.75-10.11,17.86-20.22,17.86C481.67,399.19,473.58,393.99,470.44,385.63z M433.14,375.46
		l-0.45,0.68v21.7h-12.36V317.6h12.36v43.85l0.67,0.9l1.12-0.23l19.99-20.34h15.05l-23.36,23.73v1.36l25.39,30.97h-15.05
		l-19.55-24.41l-0.67-0.45l-0.67,0.23L433.14,375.46z M414.27,349.47l-7.86,7.46c-4.49-3.39-8.99-4.97-13.93-4.97
		c-10.33,0-17.97,7.68-17.97,18.08c0,10.4,7.64,18.08,17.97,18.08c4.49,0,9.21-1.58,14.15-4.97l6.96,7.46
		c-10.11,7.46-15.5,8.81-22.47,8.81c-8.31,0-15.73-2.94-21.12-8.36c-5.17-5.2-8.09-12.88-8.09-21.02
		c0-16.95,12.36-29.38,29.43-29.38C396.97,340.65,405.29,341.56,414.27,349.47z M356.31,325.28c0,4.07-3.37,7.46-7.41,7.46
		c-4.04,0-7.41-3.39-7.41-7.46s3.37-7.46,7.41-7.46C352.94,317.82,356.31,321.22,356.31,325.28z M355.19,397.84h-12.36v-55.83h12.36
		V397.84z M315.87,373.43v24.64h-12.36v-55.83h12.13v6.78l0.67,1.13l1.12-0.45c3.14-5.2,8.99-8.59,15.28-8.59
		c0.9,0,1.57,0,2.02,0.23v12.66c-0.67-0.23-1.8-0.23-2.92-0.23C321.94,353.54,315.87,361.22,315.87,373.43z M249.6,370.04
		c0-10.17,7.64-18.08,17.52-18.08c9.89,0,17.52,7.91,17.52,18.08c0,10.17-7.64,18.08-17.52,18.08
		C257.24,388.12,249.6,380.21,249.6,370.04z M250.72,391.28h0.45l0.9,0.45c4.27,4.97,10.56,7.68,17.75,7.68
		c15.28,0,26.96-12.88,26.96-29.38c0-8.14-2.7-15.37-7.86-21.02c-4.94-5.42-11.91-8.36-19.32-8.36c-6.96,0-13.48,2.94-17.75,8.14
		l-1.12,0.23l-0.67-0.9v-30.29h-12.36v80.24h12.36v-5.65C250.05,391.73,250.27,391.51,250.72,391.28z M199.5,388.12
		c-9.66,0-17.52-7.91-17.52-18.08c0-10.17,7.64-18.08,17.52-18.08c9.89,0,17.52,7.91,17.52,18.08
		C217.02,380.21,209.16,388.12,199.5,388.12z M228.48,397.84v-55.83h-12.13v5.65l-0.67,0.9l-1.12-0.23
		c-4.04-4.97-10.33-7.68-17.75-7.68c-15.28,0-26.96,12.88-26.96,29.38c0,16.5,11.91,29.38,26.96,29.38c6.96,0,13.48-2.94,17.75-8.14
		l1.12-0.23l0.67,0.9v6.1h12.13V397.84z M95.48,388.12c-9.66,0-17.52-7.91-17.52-18.08c0-10.17,7.64-18.08,17.52-18.08
		c9.66,0,17.52,7.91,17.52,18.08C113,380.21,105.14,388.12,95.48,388.12z M124.46,397.84v-55.83h-12.13v5.65l-0.67,0.9l-1.12-0.23
		c-4.04-4.97-10.33-7.68-17.75-7.68c-15.28,0-26.96,12.88-26.96,29.38c0,16.5,11.91,29.38,26.96,29.38c6.96,0,13.48-2.94,17.75-8.14
		l1.12-0.23l0.67,0.9v6.1h12.13V397.84z M29.88,388.12c-9.89,0-17.52-7.91-17.52-18.08c0-10.17,7.64-18.08,17.52-18.08
		c9.66,0,17.52,7.91,17.52,18.08C47.4,380.21,39.54,388.12,29.88,388.12z M58.86,397.84v-80.01H46.5v30.06l-0.67,0.9l-1.12-0.23
		c-4.27-4.97-10.56-7.68-17.75-7.68C11.68,340.88,0,353.76,0,370.26c0,8.14,2.7,15.37,7.86,21.02c4.94,5.42,11.91,8.36,19.32,8.36
		c6.96,0,13.48-2.94,17.75-8.14l1.12-0.23l0.67,0.9v5.88h12.13V397.84z"/>
	<polygon class="st0" points="318.11,179.26 251.16,217.23 179.95,176.77 176.58,178.58 176.58,207.96 251.16,250.45 318.11,212.48 
		318.11,228.08 251.16,266.05 179.95,225.59 176.58,227.4 176.58,232.37 251.16,274.86 325.98,232.37 325.98,202.99 322.61,201.18 
		251.16,241.64 184.44,203.67 184.44,188.3 251.16,226.04 325.98,183.55 325.98,154.62 322.16,152.59 251.16,192.82 188.04,156.88 
		251.16,121.17 303.29,150.55 308,148.07 308,144.45 251.16,112.36 176.58,154.62 176.58,159.14 251.16,201.63 318.11,163.66 	"/>
</g>
</svg>
