<?xml version="1.0" encoding="UTF-8"?>
<svg version="1.1" viewBox="0 0 600 976" xmlns="http://www.w3.org/2000/svg">
 <g fill="#262834">
  <path d="m238.79 814.58l-34.764 3.7296 0.28666 20.63q-5.8085 22.87-8.3558 30.23-0.37325 1.3696-0.33306 2.2949-0.0318 1.7804 2.4456 3.8328 2.3797 2.0608 9.0933 5.9608l14.181 0.60615 20.567-2.9278 0.35019-18.393q-1.8881-17.163-3.4658-45.866"/>
 </g>
 <g fill="#262834">
  <path d="m370.83 838.03q-18.101-5.03-23.986-6.2598-6.4777-1.4466-6.6527-0.35496-1.3348-1.7964-9.2529-8.9903-6.0534-5.5197-17.526-15.619l-1.2697-1.1174-0.20033 0.0127-42.112 5.9342-5.7825 37.419 40.581 2.795q20.153 4.7666 28.983 6.0798 9.5543 1.5217 15.782 0.82398 3.0403-0.30268 6.1318-1.132l15.517-4.6871q6.4473-2.1125 8.1998-3.8963 4.2546-3.1233-8.2913-10.927"/>
 </g>
 <g fill="#232325">
  <path d="m234.36 81.164q-12.08-1.776-28.179 10.552-5.2256 4.0077-8.2269 9.358-1.5414 2.6409-3.5735 7.0987l-0.6704 4.9464q-0.78003 6.3746-0.09509 11.678-0.09165 1.4254 3.8767 20.649l25.899 30.742 43.4-28.608q3.2812-2.1799 3.2165-4.3067 0.01332-18.637-0.97452-31.244-0.55476-6.4181-3.6494-11.616-5.7786-9.5297-13.237-14.391-6.7195-4.1827-17.775-4.8589"/>
 </g>
 <g fill="#ffcea7">
  <path d="m234.29 105.51q-25.103 0.64312-29.006 6.8747-0.78788 1.2811-0.875 3.7131l0.26711 8.4666q-0.56752 16.368-0.33368 17.177 0.15184 6.0944 2.9466 12.613-1.9259 0.80366-2.9926-0.88465-0.46657-0.71936-0.81715-1.6673-2.1585-6.664-2.821-7.7135-1.1296-2.2417-2.5001-2.8484-5.7725-1.23-5.9736 5.3402 0.68506 6.3862 6.4015 17.246 2.1923 3.7791 3.9693 4.4716 1.2339 0.73552 4.5489-1.1679 0.55739-0.04005 0.73462 0.31008 0.34735 0.56993 0.51204 1.381 1.0106 6.2888 1.5864 7.52l3.797 7.0668q1.9208 3.724-2.4169 18.102 3.5872 3.0988 6.9187 8.7238l11.363 21.773q2.6904 4.9569 4.9806 8.2264 4.2952 6.399 8.4292 6.4205 1.7701-4.1e-4 3.4782-0.81804 7.8392-4.9638 8.5163-4.6833 1.3798-0.67658 8.78-0.40305 1.141-0.07564 2.223-0.5065 2.9486-1.2588 3.9721-5.0505 1.0008-3.7586-0.19446-9.657-0.6041-3.0137-1.8997-7.3284-6.4239-19.641-6.1896-19.712-1.4799-5.7192-1.3294-10.429 0.06692-2.0047 0.41028-4.5674l3.2418-7.526 2.848-14.341 3.1996-3.6308q3.1147-16.049 2.682-19.802-0.28213-4.5765-3.6863-2.2416-2.7828 2.3575-3.2484 7.9271-0.28055-13.267-1.4451-20.826-0.91928-5.6834-3.2806-7.3698-3.1733-2.5481-16.546-8.3385-4.3703-1.7243-10.172-1.8381"/>
 </g>
 <g fill="#404c5d">
  <path d="m185.6 432.01l-6.1302 28.2 3.254 57.139 10.264 95.771-7.3804 76.968 4.2609 91.748 12.173 14.605-1.8506 29.768 45.144-9.6772q-5.432-96.036-3.1967-125.42 5.8483-84.366 17.048-133.2 0.87048 17.21 7.1818 68.826 0.86569 8.7124 0.90622 12.811 0.48585 10.922-4.4898 9.6102l-1.6084 74.574 4.3234 40.851q-3.6816 37.261-1.0174 46.811 1.9235 9.7556 11.149 9.0008 0.13806 1.6435 40.552-12.917l-4.3136-40.006-0.89397-46.136 6.7543-61.512 12.029-35.288-0.19258-53.892 3.486-53.151-10.22-51.405q-8.4321-18.969-9.9407-24.343l-23.498 7.9263-52.436-6.7045-51.124-10.912"/>
 </g>
 <g fill="#6ca4d8">
  <path d="m212.57 192.13l-8.2208 13.114-14.206 6.6624q-18.313 12.752-34.913 20.08l-11.096 19.211-10.058 28.977 4.652 19.584-9.758 39.169 2.2132 6.8998-3.1758 8.6645-0.53545 13.442 2.8262 4.2398 0.28932-0.0849 13.314-14.899 19.121-18.175 17.974-2.0779-0.81754 54.392 1.7211 6.1073-6.7257 4.8044-1.958 4.9445 12.057 12.751q39.68 7.2433 65.14 14.785l19.548 12.857 29.383-14.487 12.426-8.8577 5.2171-6.3344-0.14368-20.954-1.574-8.5554 8.6507-0.1993 4.911-3.7652-11.517 0.4151-4.7412-5.5362-2.0591-22.169 11.111-8.5932 16.756-4.8791-3.5556-2.4933-0.2293-16.462 3.6631-4.3957-4.6131-15.487-9.5084-60.786-10.199-16.264q-26.531-12.609-34.684-15.93-7.9799-3.4156-9.5533-2.1999l-1.0089-4.7922-7.1889-7.7898-0.23207 2.4738 4.324 20.786-7.9092 5.3364-3.5548 5.3184-14.378-16.444-26.908-22.175"/>
 </g>
 <g fill="#232325">
  <path d="m314.2 422.24l-17.897 11.497-24.946 4.3471-85.811-18.146-0.38802 15.699q11.165 0.8952 13.795 1.3588 1.0692 0.16113 2.0532 0.37701 5.4819 1.4826 8.1227 1.8831 19.145 2.7354 22.065 3.3677 5.4314 0.98724 9.76 2.1151 1.0704 0.18623 14.964 4.3488 3.0641 0.8593 5.7441 1.4408 6.4475 1.4181 13.073 1.4816 8.6728 0.22915 26.324-1.9814l12.631-7.3368 0.5106-20.44"/>
 </g>
 <g fill="#ffcea7">
  <path d="m335.8 320l-23.962-6.1443-29.423 2.1285-19.612 8.5827-32.09 7.0104-25.924 9.2807-38.885-4.0884-37.5 34.629 9.473 12.568 11.5 6.6923q8.6567-5.6185 14.348-7.0107 4.8599-1.4656 17.164-1.0724l53.795-22.439 17.686-13.327 1.0008-6.433 7.7847-1.8747q12.703 0.99324 16.511-0.35971l9.5566-3.8568q2.5339-0.98133 5.2995-1.8781 2.4152-0.7877 5.0861-1.4986l8.6142-1.9878q1.3453-0.3206 2.4426-0.76877 2.4256-0.88947 1.7051-3.5964 14.82 3.2111 18.742 1.9005 3.9171-0.74027 6.614-6.3151"/>
 </g>
 <g fill="#ffcea7">
  <path d="m406.12 326.4q-0.50173-0.27256-1.0943-0.17206-3.0467 2.4111-5.9938 2.365-1.3845 0.04559-3.4999-0.16974-11.582-1.5455-12.9-1.4559-3.636-0.18845-6.6719 0.65719-2.5883 0.70954-4.8186 2.544-1.0312 0.86316-1.9961 2.0543-3.9733 5.6148-4.1989 5.5563-1.3803 1.3783-2.7661 1.5092-1.4694 0.20993-3.9668-0.88937-0.56437-0.05613-8.1156-4.6791-1.6613-0.88107-2.459-0.98587-1.1963-0.2608-1.1236 1.1519-0.14816 0.33667 1.8951 5.9616 0.28722 0.98122-0.0384 1.0978-0.38293-7.5e-4 -1.1618-0.62422l-5.6633-4.6425q-1.4562-1.0535-2.6928-1.4763-2.8951-1.0362-6.1991 1.5194l7.9304 12.187-7.4276-5.2902-24.288 12.238 3.1945 37.313q14.899-7.3105 20.648-9.7558 5.53-2.5469 14.216-5.0282 1.8721-0.71442 3.353-1.7525 2.4502-1.6959 5.2356-5.0993 13.671-18.076 14.553-18.693 3.104-3.5673 6.2358-5.9207 4.5954-3.5217 11.386-5.5179l1.3953-0.43362q3.01 0.51276 4.6168 0.28451 1.5637-0.1383 3.5999-0.93228 3.9321-1.6336 7.4897-4.6742 5.6048-4.9393 1.4147-8.2016"/>
 </g>
 <g fill="#d7dad3">
  <path d="m447.66 204.18l-94.284 1.6846-7.9691 116.24-92.444 18.324 1.2635 7.6826 190.06-26.874 3.3726-116.94"/>
 </g>
</svg>
