<?xml version="1.0" encoding="UTF-8"?>
<svg viewBox="0 0 640 480" xmlns="http://www.w3.org/2000/svg" xmlns:xlink="http://www.w3.org/1999/xlink">
 <defs>
  <linearGradient id="a">
   <stop stop-color="#7cc0ff" offset="0"/>
   <stop stop-color="#7cc0ff" stop-opacity="0" offset="1"/>
  </linearGradient>
  <radialGradient id="l" cx="263.55" cy="168.09" r="3.3118" gradientTransform="matrix(1 0 0 1.9379 0 -157.64)" gradientUnits="userSpaceOnUse" xlink:href="#a"/>
  <radialGradient id="k" cx="301.98" cy="162.67" r="3.3118" gradientTransform="matrix(1 0 0 1.9379 0 -152.56)" gradientUnits="userSpaceOnUse" xlink:href="#a"/>
  <radialGradient id="j" cx="340.14" cy="159.12" r="3.3118" gradientTransform="matrix(1 0 0 1.9379 0 -149.23)" gradientUnits="userSpaceOnUse" xlink:href="#a"/>
  <radialGradient id="i" cx="379.35" cy="157.66" r="3.3118" gradientTransform="matrix(1 0 0 1.9379 0 -147.86)" gradientUnits="userSpaceOnUse" xlink:href="#a"/>
  <radialGradient id="h" cx="418.14" cy="158.7" r="3.3118" gradientTransform="matrix(1 0 0 1.9379 0 -148.84)" gradientUnits="userSpaceOnUse" xlink:href="#a"/>
  <radialGradient id="m" cx="225.02" cy="174.14" r="3.3118" gradientTransform="matrix(1 0 0 1.9379 0 -163.32)" gradientUnits="userSpaceOnUse" xlink:href="#a"/>
 </defs>
 <switch>
  <g>
   <path d="m46.074 112.73c3.06 2.952-1.3517-27.529 2.0683-25.687 4.1822 5.179 8.0342 36.512 11.274 35.036 3.096-1.62 51.712 29.45 54.088 24.662 6.696 3.816 6.4876-19.186-5.5075-35.452-4.1783-8.1681-42.516-14.59-37.152-17.182 5.256-2.772 32.987 6.5616 36.227 1.1616 3.204-5.472-16.607-37.962-17.291-44.478 9.468 9.468 7.9959 12.635 13.936 20.339 5.796 7.56 6.2876-6.3046 15.793-14.186 4.536 6.3-3.2012 19.657-3.8802 27.98 3.348 2.232 9.2482 34.284 14.72 39.232 7.7584 5.5661 20.671 16.929 20.707 9.1171 0.071991-7.776-8.5056-30.094-5.8416-34.558 2.52-4.536-13.594-24.028-12.19-28.456 1.332-4.572 5.6768-22.815 6.2168-28.467 6.264 1.296 0.38753 16.731 4.7435 20.007 4.212 3.168 15.584-7.834 18.968-5.062-5.0659 6.1088-6.867 23.062-8.3442 29.022-2.3473 5.7797 7.7462 44.622 11.49 36.882 3.24 6.372 18.152-39.654 23.192-35.766 4.932 3.672-3.4172-40.895 3.6028-40.823 7.056-0.035999-2.506 20.183 6.746 15.215-3.348 5.112 11.5 0.10572 10.887 5.5417-0.61101 5.364-9.0867 7.4632-9.4467 13.115-0.46701 5.58-3.348 11.736-4.896 16.92-1.728 5.04-1.3532 7.4334-4.68 13.572-5.5848 4.6067-24.728 27.629-14.468 29.249 2.407 6.0666 19.636 4.5174 26.665 4.3847 11.369-8.5107 11.428-12.96 13.197-7.7844 0.68401 3.852-5.5688 7.138-2.4989 15.299-6.4153 7.1826 3.775 9.108 3.308 14.112-0.686 5.004-14.175-12.636-21.268-10.092-7.1652-1.0091-21.623 9.6502-27.526 13.466-4.3446 12.92 66.415-2.6355 142.73-11.604 26.103-7.2018 106.1-3.2904 111.44-2.7178-0.87045-6.3917-5.6454-14.714-9.9069-21.382 2.2701 2.7815 2.3193-4.7358 6.1006-1.3642s7.1657 20.582 10.208 19.73c3.0418-0.85158 2.5117-29.35 3.6864-35.918s4.0542 8.7945 4.4775 1.2865c0.84656 12.421-4.636 31.47 0.8458 30.958 5.4818-0.51202 21.928-20.585 28.881-22.703-1.9548 3.5191 2.4611 4.2124 0.62183 7.1641-2.1564 3.4606-26.473 17.391-25.431 20.838 1.4955 4.9449 32.593 7.4071 34.086 10.374 1.4932 2.9671 8.9726 4.4498 2.2023 6.6118-3.6 1.1496-37.73-11.552-41.577-7.0222-3.8473 4.53 22.588 26.292 21.474 27.678 0 0 4.5855-0.92703-3.0662 4.8988-7.7237-9.1896-20.961-22.758-25.913-28.733-2.7094-3.2695-7.033 11.586-12.043 15.193-5.0104 3.607 1.0896-4.0344-4.3671-2.7489 6.4882-7.833 10.728-13.875 6.4352-16.313-16.09-2.4377-64.309-1.2709-108.47 2.9546-100.04 10.694-136.51 27.285-141.77 32.65-5.4 5.256 6.898 18.533 10.89 25.437-9.9806-1.7214-10.224-1.7375-9.2807 14.838-9.9631-13.249-15.887-17.293-24.301-19.343-8.5579 12.094 13.707 52.383 7.587 49.252-6.192-3.096-8.1821-22.937-12.788-7.6579-3.739-22.978-8.0775-0.10586-12.47-4.3539-4.5-4.32 1.1616-11.844-2.93-21.609-5.796-7.2958-16.315-0.67667-19.879-1.9717 5.076-5.904 11.1-12.613 2.5115-18.89-5.2161-1.3782-14.603 10.174-17.736 19.094-3.3131-12.807-9.8427-4.974-11.247-10.302 19.827-3.924 0.21006-4.3163 13.45-7.2884 7.02-10.209 11.338-14.446 4.9162-19.941-0.036003-2.27-53.812-4.0268-63.46-6.5118 8.5962-4.1154-7.106-5.4824-11.658-15.067 10.427 0.24695 32.131 6.7766 20.503 0.26163 14.739-10.262 0.53267-11.918 4.3847-15.122 3.852-3.168 12.54 19.326 23.3 20.198 9.7099-0.070862 20.459 3.8492 25.417-9.7785 0.2332-15.523-37.907-28.791-45.865-35.931 5.076-3.996-27.806-20.456-26.762-27.98 1.009-7.525 24.955 17.497 21.931 6.5168z" fill="#00007f" fill-rule="evenodd" opacity=".52"/>
  </g>
 </switch>
 <g fill-rule="evenodd">
  <g fill="#00f">
   <path d="m206.96 167.67c-6.4683 0.33679-2.4805-0.6303-8.3419 1.4598-5.999 2.1392-12.856 4.947-9.6463 14.276 2.6187 7.6112 11.269 5.0286 15.42 4.8201 3.2895-0.16527 11.766-1.3306 14.932-2.9135 3.0586-1.5293 5.9907-1.9248 5.2433-10.588-0.84514-9.797-12.059-7.3437-17.607-7.0548z"/>
   <path d="m244.75 160.68c-4.3112 0.33679-2.4805-0.6303-8.3419 1.4598-5.999 2.1392-12.856 4.947-9.6464 14.276 2.6187 7.6112 11.269 5.0287 15.42 4.8201 3.2895-0.16527 11.766-1.3306 14.932-2.9135 3.0586-1.5293 5.9907-1.9248 5.2434-10.588-0.84515-9.797-12.069-7.4875-17.607-7.0548z"/>
   <path d="m283.54 155.45c-4.3112 0.33679-2.4805-0.63031-8.3419 1.4598-5.999 2.1392-12.856 4.947-9.6463 14.276 2.6187 7.6112 11.269 5.0287 15.42 4.8201 3.2895-0.16527 11.766-1.3305 14.932-2.9135 3.0586-1.5293 5.9907-1.9248 5.2434-10.588-0.84515-9.797-12.069-7.4875-17.607-7.0548z"/>
   <path d="m322.39 150.51c-4.324 0.04715-2.4327-0.7951-8.421 0.89758-6.1289 1.7324-13.159 4.0744-10.581 13.598 2.1028 7.7696 10.907 5.7725 15.063 5.8426 3.2932 0.055527 11.828-0.53918 15.093-1.9065 3.1542-1.3209 6.1062-1.5191 5.941-10.213-0.18677-9.8316-11.54-8.2794-17.095-8.2188z"/>
   <path d="m361.49 147.95c-4.3164-0.26111-2.3699-0.96643-8.4635 0.29521-6.2368 1.2913-13.416 3.1264-11.523 12.809 1.5438 7.8997 10.468 6.5351 14.608 6.9011 3.2808 0.29007 11.837 0.30513 15.191-0.82602 3.2403-1.0928 6.1989-1.0801 6.6537-9.7634 0.51434-9.82-10.92-9.0807-16.466-9.4161z"/>
   <path d="m401.59 148.73c-4.2888-0.55313-2.2989-1.1249-8.4641-0.27924-6.3099 0.86549-13.597 2.2097-12.365 11.999 1.0047 7.9861 10.001 7.2297 14.106 7.8755 3.2536 0.51181 11.789 1.1068 15.212 0.20569 3.307-0.8706 6.2578-0.65736 7.3003-9.2899 1.1789-9.7625-10.28-9.8001-15.789-10.511z"/>
  </g>
  <path d="m263.94 162.17c-2.6638 0.021164-3.3238 3.714-3.1814 5.7258 0.22565 3.1869 0.22443 5.5853 2.8236 6.0775 2.4981 0.47307 2.9366-4.3918 2.7408-6.4169-0.25919-2.6801 0.027618-5.4073-2.3829-5.3865z" fill="url(#l)"/>
  <path d="m225.41 168.22c-2.6638 0.021179-3.3238 3.714-3.1814 5.7258 0.22566 3.1869 0.22444 5.5853 2.8236 6.0775 2.4981 0.47307 2.9366-4.3918 2.7408-6.4169-0.2592-2.6801 0.027603-5.4073-2.383-5.3865z" fill="url(#m)"/>
  <path d="m302.36 156.75c-2.6638 0.021179-3.3238 3.714-3.1814 5.7259 0.22568 3.1869 0.22446 5.5853 2.8236 6.0775 2.4981 0.47305 2.9366-4.3918 2.7408-6.4169-0.25922-2.6801 0.027588-5.4073-2.383-5.3865z" fill="url(#k)"/>
  <path d="m340.53 153.2c-2.6638 0.021164-3.3238 3.714-3.1814 5.7258 0.22568 3.1869 0.22446 5.5853 2.8236 6.0775 2.4981 0.47307 2.9366-4.3918 2.7408-6.4169-0.25922-2.6801 0.027588-5.4073-2.383-5.3865z" fill="url(#j)"/>
  <path d="m379.74 151.74c-2.6638 0.021179-3.3238 3.714-3.1814 5.7259 0.22568 3.1869 0.22446 5.5853 2.8236 6.0775 2.4981 0.47305 2.9366-4.3918 2.7408-6.4169-0.25919-2.6801 0.027618-5.4073-2.3829-5.3865z" fill="url(#i)"/>
  <path d="m418.53 152.79c-2.6638 0.021179-3.3238 3.714-3.1814 5.7259 0.22565 3.1869 0.22443 5.5853 2.8236 6.0775 2.4981 0.47305 2.9366-4.3918 2.7408-6.4169-0.25919-2.6801 0.027618-5.4073-2.3829-5.3865z" fill="url(#h)"/>
  <path d="m130.87 164.69c-11.777 4.572-9.3802 17.209-8.4729 20.925 2.7652 11.324 13.47 21.89 24.326 19.236 13.76-3.3633 10.623-13.441 8.4175-23.397-1.7533-7.9147-8.9002-22.732-24.27-16.765z" fill="#ff7f00"/>
 </g>
</svg>
