<?xml version="1.0" encoding="UTF-8"?>
<svg viewBox="0 0 200 200" xmlns="http://www.w3.org/2000/svg" xmlns:xlink="http://www.w3.org/1999/xlink">
 <defs>
  <filter id="dr" x="-.17886" y="-.12468" width="1.3577" height="1.2494">
   <feGaussianBlur stdDeviation="0.221497"/>
  </filter>
  <filter id="cs" x="-.12485" y="-.17836" width="1.2497" height="1.3567">
   <feGaussianBlur stdDeviation="0.221497"/>
  </filter>
  <filter id="cp" x="-.17886" y="-.12468" width="1.3577" height="1.2494">
   <feGaussianBlur stdDeviation="0.221497"/>
  </filter>
  <filter id="dq" x="-.1474" y="-.1421" width="1.2948" height="1.2842">
   <feGaussianBlur stdDeviation="0.221497"/>
  </filter>
  <filter id="dp" x="-.18442" y="-.12295" width="1.3688" height="1.2459">
   <feGaussianBlur stdDeviation="0.221497"/>
  </filter>
  <filter id="dn" x="-.1658" y="-.12997" width="1.3316" height="1.2599">
   <feGaussianBlur stdDeviation="0.221497"/>
  </filter>
  <filter id="ct" x="-.18442" y="-.12295" width="1.3688" height="1.2459">
   <feGaussianBlur stdDeviation="0.221497"/>
  </filter>
  <filter id="do" x="-.16129" y="-.1323" width="1.3226" height="1.2646">
   <feGaussianBlur stdDeviation="0.221497"/>
  </filter>
  <filter id="ds" x="-.14972" y="-.1401" width="1.2994" height="1.2802">
   <feGaussianBlur stdDeviation="0.221497"/>
  </filter>
  <filter id="bs" x="-.12454" y="-.17929" width="1.2491" height="1.3586">
   <feGaussianBlur stdDeviation="0.221497"/>
  </filter>
  <filter id="br" x="-.12302" y="-.18417" width="1.246" height="1.3683">
   <feGaussianBlur stdDeviation="0.221497"/>
  </filter>
  <filter id="cr" x="-.12295" y="-.18442" width="1.2459" height="1.3688">
   <feGaussianBlur stdDeviation="0.221497"/>
  </filter>
  <filter id="bq" x="-.16592" y="-.12991" width="1.3318" height="1.2598">
   <feGaussianBlur stdDeviation="0.221497"/>
  </filter>
  <filter id="dv" x="-.18442" y="-.12295" width="1.3688" height="1.2459">
   <feGaussianBlur stdDeviation="0.221497"/>
  </filter>
  <filter id="dt" x="-.12295" y="-.18442" width="1.2459" height="1.3688">
   <feGaussianBlur stdDeviation="0.221497"/>
  </filter>
  <filter id="cq" x="-.14972" y="-.1401" width="1.2994" height="1.2802">
   <feGaussianBlur stdDeviation="0.221497"/>
  </filter>
  <filter id="du" x="-.12485" y="-.17836" width="1.2497" height="1.3567">
   <feGaussianBlur stdDeviation="0.221497"/>
  </filter>
  <filter id="cu" x="-.16592" y="-.12991" width="1.3318" height="1.2598">
   <feGaussianBlur stdDeviation="0.221497"/>
  </filter>
  <filter id="dg" x="-.14426" y="-.14509" width="1.2885" height="1.2902">
   <feGaussianBlur stdDeviation="0.221497"/>
  </filter>
  <filter id="df" x="-.13954" y="-.15042" width="1.2791" height="1.3008">
   <feGaussianBlur stdDeviation="0.221497"/>
  </filter>
  <filter id="dm" x="-.14426" y="-.14509" width="1.2885" height="1.2902">
   <feGaussianBlur stdDeviation="0.221497"/>
  </filter>
  <filter id="cz" x="-.14615" y="-.14324" width="1.2923" height="1.2865">
   <feGaussianBlur stdDeviation="0.221497"/>
  </filter>
  <filter id="de" x="-.12473" y="-.17871" width="1.2495" height="1.3574">
   <feGaussianBlur stdDeviation="0.221497"/>
  </filter>
  <filter id="da" x="-.17283" y="-.12689" width="1.3457" height="1.2538">
   <feGaussianBlur stdDeviation="0.221497"/>
  </filter>
  <filter id="dd" x="-.18442" y="-.12295" width="1.3688" height="1.2459">
   <feGaussianBlur stdDeviation="0.221497"/>
  </filter>
  <filter id="dc" x="-.18898" y="-.12598" width="1.378" height="1.252">
   <feGaussianBlur stdDeviation="0.226967"/>
  </filter>
  <filter id="cy" x="-.15301" y="-.13756" width="1.306" height="1.2751">
   <feGaussianBlur stdDeviation="0.221497"/>
  </filter>
  <filter id="cv" x="-.12302" y="-.18417" width="1.246" height="1.3683">
   <feGaussianBlur stdDeviation="0.221497"/>
  </filter>
  <filter id="dl" x="-.16129" y="-.1323" width="1.3226" height="1.2646">
   <feGaussianBlur stdDeviation="0.221497"/>
  </filter>
  <filter id="dh" x="-.15633" y="-.13528" width="1.3127" height="1.2706">
   <feGaussianBlur stdDeviation="0.221497"/>
  </filter>
  <filter id="cw" x="-.12454" y="-.17929" width="1.2491" height="1.3586">
   <feGaussianBlur stdDeviation="0.221497"/>
  </filter>
  <filter id="dk" x="-.12751" y="-.1713" width="1.255" height="1.3426">
   <feGaussianBlur stdDeviation="0.221497"/>
  </filter>
  <filter id="di" x="-.12698" y="-.1726" width="1.254" height="1.3452">
   <feGaussianBlur stdDeviation="0.221497"/>
  </filter>
  <filter id="dj" x="-.1658" y="-.12997" width="1.3316" height="1.2599">
   <feGaussianBlur stdDeviation="0.221497"/>
  </filter>
  <filter id="cx" x="-.13776" y="-.15274" width="1.2755" height="1.3055">
   <feGaussianBlur stdDeviation="0.221497"/>
  </filter>
  <filter id="db" x="-.12347" y="-.18264" width="1.2469" height="1.3653">
   <feGaussianBlur stdDeviation="0.221497"/>
  </filter>
  <filter id="cc" x="-.14426" y="-.14509" width="1.2885" height="1.2902">
   <feGaussianBlur stdDeviation="0.221497"/>
  </filter>
  <filter id="cm" x="-.16129" y="-.1323" width="1.3226" height="1.2646">
   <feGaussianBlur stdDeviation="0.221497"/>
  </filter>
  <filter id="cl" x="-.1658" y="-.12997" width="1.3316" height="1.2599">
   <feGaussianBlur stdDeviation="0.221497"/>
  </filter>
  <filter id="ca" x="-.12473" y="-.17871" width="1.2495" height="1.3574">
   <feGaussianBlur stdDeviation="0.221497"/>
  </filter>
  <filter id="bz" x="-.18442" y="-.12295" width="1.3688" height="1.2459">
   <feGaussianBlur stdDeviation="0.221497"/>
  </filter>
  <filter id="cb" x="-.13954" y="-.15042" width="1.2791" height="1.3008">
   <feGaussianBlur stdDeviation="0.221497"/>
  </filter>
  <filter id="cd" x="-.15633" y="-.13528" width="1.3127" height="1.2706">
   <feGaussianBlur stdDeviation="0.221497"/>
  </filter>
  <filter id="cg" x="-.12751" y="-.1713" width="1.255" height="1.3426">
   <feGaussianBlur stdDeviation="0.221497"/>
  </filter>
  <filter id="ck" x="-.14426" y="-.14509" width="1.2885" height="1.2902">
   <feGaussianBlur stdDeviation="0.221497"/>
  </filter>
  <filter id="ch" x="-.16129" y="-.1323" width="1.3226" height="1.2646">
   <feGaussianBlur stdDeviation="0.221497"/>
  </filter>
  <filter id="cf" x="-.1658" y="-.12997" width="1.3316" height="1.2599">
   <feGaussianBlur stdDeviation="0.221497"/>
  </filter>
  <filter id="ce" x="-.12698" y="-.1726" width="1.254" height="1.3452">
   <feGaussianBlur stdDeviation="0.221497"/>
  </filter>
  <filter id="bn">
   <feGaussianBlur stdDeviation="0.211697"/>
  </filter>
  <filter id="c" x="-.10938" y="-.31831" width="1.2188" height="1.6366">
   <feGaussianBlur stdDeviation="1.373266"/>
  </filter>
  <filter id="cj">
   <feGaussianBlur stdDeviation="0.442994"/>
  </filter>
  <filter id="cn" x="-.18442" y="-.12295" width="1.3688" height="1.2459">
   <feGaussianBlur stdDeviation="0.221497"/>
  </filter>
  <filter id="bv" x="-.14615" y="-.14324" width="1.2923" height="1.2865">
   <feGaussianBlur stdDeviation="0.221497"/>
  </filter>
  <filter id="bu" x="-.15301" y="-.13756" width="1.306" height="1.2751">
   <feGaussianBlur stdDeviation="0.221497"/>
  </filter>
  <filter id="bt" x="-.13776" y="-.15274" width="1.2755" height="1.3055">
   <feGaussianBlur stdDeviation="0.221497"/>
  </filter>
  <filter id="co" x="-.1474" y="-.1421" width="1.2948" height="1.2842">
   <feGaussianBlur stdDeviation="0.221497"/>
  </filter>
  <filter id="bw" x="-.17283" y="-.12689" width="1.3457" height="1.2538">
   <feGaussianBlur stdDeviation="0.221497"/>
  </filter>
  <filter id="bx" x="-.12347" y="-.18264" width="1.2469" height="1.3653">
   <feGaussianBlur stdDeviation="0.221497"/>
  </filter>
  <filter id="by" x="-.18898" y="-.12598" width="1.378" height="1.252">
   <feGaussianBlur stdDeviation="0.226967"/>
  </filter>
  <linearGradient id="bo">
   <stop stop-color="#fff" offset="0"/>
   <stop stop-color="#503282" stop-opacity="0" offset="1"/>
  </linearGradient>
  <linearGradient id="bp">
   <stop stop-color="#ff7f2a" stop-opacity="0" offset="0"/>
   <stop stop-color="#ff7f2a" offset="1"/>
  </linearGradient>
  <radialGradient id="a" cx="219.48" cy="470.57" r="1.4413" gradientTransform="matrix(1 0 0 1.5 0 -235.28)" gradientUnits="userSpaceOnUse" xlink:href="#bp"/>
  <radialGradient id="b" x1="1" y1="1" y2="1" cx="219.48" cy="470.57" r="1.4413" gradientTransform="matrix(1 0 0 1.5 0 -235.28)" gradientUnits="userSpaceOnUse" xlink:href="#bp"/>
  <radialGradient id="d" cx="-38.4" cy="-18.471" r="16.221" gradientTransform="matrix(1.7015 -.10392 .023719 .38834 -23.847 6.6253)" gradientUnits="userSpaceOnUse" xlink:href="#bo"/>
  <radialGradient id="ci" cx="-38.4" cy="-18.471" r="16.221" gradientTransform="matrix(1.7015 -.10392 .023719 .38834 37.259 62.885)" gradientUnits="userSpaceOnUse" xlink:href="#bo"/>
 </defs>
 <path d="m86.09 63.006c-0.2681 0.01825-0.53156 0.087128-0.8125 0.1875-1.1238 0.40137-1.8301 1.3133-1.5625 2.0625 0.18674 0.52289 0.79984 0.81812 1.5312 0.8125 0.005219 0.46735 0.19113 0.97061 0.40625 1.3125 0.41132 0.51852-0.025391 1.2214-0.625 1.3125-0.19611 0.019897-0.34915 0.074615-0.46875 0.15625-0.55051-0.81342-1.3789-1.207-2-0.90625-0.71603 0.34671-0.89508 1.5196-0.375 2.5938 0.52005 1.0741 1.5339 1.6592 2.25 1.3125 0.55154-0.26709 0.75897-1.0245 0.59375-1.8438 0.35135-0.022308 0.77097-0.2323 1.0625-0.3125 0.86096-0.36478 1.8032-0.34299 2.625 0.125 2.4671 0.95316 4.9721 1.9337 7.0625 3.5938 1.9043 1.25 3.7012 2.8342 4.4375 5.0625 0.6817 1.5835 0.69644 3.3483 0.96875 5.0312 0.18063 1.8922 0.38867 3.8598-0.09375 5.7188-0.68484 1.538-1.8694 2.7941-3 4-1.6203 1.2537-3.7557 1.3032-5.7188 1.3125-1.7909 0.15955-3.6054 0.35529-5.375-0.09375-2.6801-0.54199-5.5128-0.70117-8-1.9062-1.188-0.64224-2.6131-1.3299-2.8125-2.8125-0.24054-1.0457-0.44351-2.1049-0.78125-3.125-1.6123-0.83731-1.9956-2.8334-2.5625-4.4375-0.31519-0.87176-0.51498-1.7902-0.84375-2.6562 0.042389-0.049927 0.057404-0.10495 0.09375-0.15625 0.040192-0.056519 0.092621-0.098328 0.125-0.15625 0.022705-0.04068 0.043854-0.083954 0.0625-0.125 0.00415-0.009125-0.003967-0.022125 0-0.03125 0.039703-0.091766 0.075684-0.18918 0.09375-0.28125 0.018158-0.089081 0.034332-0.16254 0.03125-0.25-3.05e-4 -0.01059 6.1e-4 -0.020721 0-0.03125-0.006531-0.0979-0.027069-0.18835-0.0625-0.28125-0.03244-0.085022-0.10284-0.17798-0.15625-0.25-0.004974-0.006439 0.005127-0.024963 0-0.03125-0.055389-0.071014-0.11389-0.13025-0.1875-0.1875-0.006958-0.00528-0.02417 0.005127-0.03125 0-0.074921-0.055878-0.15982-0.11472-0.25-0.15625-0.008026-0.003632-0.023132 0.003479-0.03125 0-0.49979-0.21967-1.1782-0.23465-1.875 0.03125-1.115 0.42542-1.8149 1.3817-1.5312 2.125 0.035431 0.092896 0.095886 0.17264 0.15625 0.25 0.060272 0.076965 0.10574 0.15832 0.1875 0.21875 0.005737 0.004425 0.025391-0.004364 0.03125 0 0.076324 0.053955 0.15866 0.11676 0.25 0.15625 0.20548 0.094666 0.45618 0.14081 0.71875 0.15625 0.37778 0.022217 0.76938-0.059235 1.1875-0.21875 0.044525-0.017029 0.081879-0.043884 0.125-0.0625 0.24536 1.3025 1.2544 2.5361 0.71875 3.875-0.47061 1.0446-1.9035 0.88373-2.875 0.78125-0.90198-0.13696-1.797-0.46307-2.2812-1.2812-0.18451-0.18054-0.43811-0.34152-0.71875-0.40625 0.050232-0.61346-0.13864-1.1328-0.5625-1.375-0.69076-0.39471-1.7517 0.12012-2.3438 1.1562-0.59207 1.0361-0.50326 2.199 0.1875 2.5938 0.48438 0.27676 1.1342 0.079224 1.6875-0.40625 1.4409 0.77252 3.0072 1.3745 4.5938 1.7812 1.0881-0.004333 2.3263-0.6116 3.3125-0.03125 0.83554 0.61081 1.2775 1.3678 1.9062 2.1875 0.35928 0.84674 0.42746 1.8551 0.5 2.7812 0.12378 1.3434-0.11322 3.0542-1.5 3.5938-0.47601 0.09787-0.96155 0.17758-1.2188 0.625-1.1538 0.91037-2.6883 1.7501-4.1875 1.3125-0.68542 0.33499-1.3042-0.27722-1.6875-0.75-0.22418-0.23782-0.41763-0.55356-0.625-0.84375 0.60715-0.78702 0.73859-1.7229 0.25-2.2188-0.55838-0.56671-1.7124-0.33758-2.5625 0.5-0.85007 0.83756-1.0896 1.9645-0.53125 2.5312 0.40585 0.41193 1.1258 0.41687 1.8125 0.0625 0.62341 0.55731 1.327 1.1698 1.0938 2.0625-0.51068 0.46158-1.3072 0.37842-2 0.34375-0.53107-0.57947-1.2229-0.81775-1.75-0.5625-0.71603 0.34671-0.86383 1.4884-0.34375 2.5625 0.52005 1.0741 1.534 1.6592 2.25 1.3125 0.49228-0.23837 0.69894-0.84958 0.625-1.5625 2.7309-0.26883 5.2904-1.3846 7.8125-2.4062 2.0458-1.0058 3.7814-2.8093 6.125-3.0938 2.9241-0.16122 5.8206 0.52908 8.625 1.2812 0.99979 0.46222 2.3085 0.29907 3.0312 1.25 1.3165 1.3399 1.1737 3.4348 1.0312 5.1875-0.21802 2.3987-0.5253 5.1298-2.5 6.75-1.367 1.2194-3.2891 1.6752-5 2.2812-4.6466 1.4635-9.5965 1.6896-14.406 1.0312-1.6613-0.11655-3.2588-0.75784-4.5-1.875-1.1335-0.98117-2.1894-1.8289-3.4375-2.6875-1.5586-1.0973-3.2618-2.0647-5-2.7812 0.13339-0.71875-0.049377-1.3496-0.53125-1.625-0.69076-0.39471-1.7204 0.12012-2.3125 1.1562-0.59207 1.0361-0.50326 2.199 0.1875 2.5938 0.53619 0.30637 1.2592 0.04715 1.8438-0.5625 0.098694 0.089844 0.22436 0.16721 0.375 0.21875 1.9715 1.2668 4.2915 2.0621 5.9062 3.8125 0.67609 0.76062 1.5234 1.8769 0.90625 2.9375-0.40628 0.85974-1.4008 1.1776-2.3125 1.25-2.0781 0.29245-4.1637 0.071411-6.25 0.25-0.34045-0.1228-0.55572 0.036102-0.71875 0.28125-0.17938-0.88773-0.72488-1.5312-1.375-1.5312-0.79559 0-1.4375 0.96286-1.4375 2.1562 0 1.1934 0.64191 2.1875 1.4375 2.1875 0.52136 0 0.96564-0.43994 1.2188-1.0625 0.1001 0.013763 0.20526-0.002167 0.34375-0.03125 3.2161 0.13159 6.5354-0.005981 9.5938-1.0938 0.78122-0.36017 1.6815-0.86484 2.0625-1.5625 2.0916-0.76468 4.5212-0.74933 6.5312 0.25 0.48959 0.99405-0.27347 1.9789-0.96875 2.625-1.1057 1.1716-2.4555 2.1298-3.5312 3.3125-0.39041 0.64963-1.003 1.0882-1.3125 1.7188-0.76196-0.63828-1.7037-0.78079-2.2188-0.3125-0.58868 0.53516-0.39648 1.6795 0.40625 2.5625s1.9113 1.1601 2.5 0.625c0.34131-0.3103 0.42654-0.82294 0.28125-1.375 0.6604-0.40564 1.0739-1.1876 1.6875-1.75 2.3524-2.6157 4.7467-5.347 7.9062-6.9688 3.0743-1.4254 6.5626-1.2701 9.75-2.3125 2.2948-0.70682 4.5988-1.8291 7.0625-1.5625 1.9744 0.07547 4.0209-0.004547 5.9062 0.65625 1.0558 0.48709 1.1443 1.9386 1.0625 3-0.22427 1.9887-1.0367 3.8659-1.1562 5.875-0.26141 3.174-1.2149 6.3698-3.2812 8.8438-1.3842 1.6772-2.9557 3.2353-4.625 4.6562-1.0127 0.80194-2.487 0.50204-3.6562 0.1875-0.78201-0.1925-1.5759-0.35071-2.375-0.375-0.072174-0.74313-0.45059-1.3425-1-1.4688-0.77536-0.17825-1.6077 0.64948-1.875 1.8125-0.26736 1.163 0.13089 2.228 0.90625 2.4062 0.63641 0.1463 1.3149-0.35605 1.6875-1.1875 0.001892-0.004242 0.029358 0.004211 0.03125 0 1.007-0.06308 2.0398-0.16299 2.9375 0.21875 0.4194 0.37393 0.10593 0.9455-0.1875 1.4062-0.47461-0.15558-0.93106-0.14313-1.25 0.125-0.60901 0.5119-0.48663 1.6802 0.28125 2.5938 0.76785 0.91348 1.891 1.2306 2.5 0.71875 0.59665-0.50156 0.47687-1.5958-0.25-2.5 0.64236-0.53207 1.3089-1.2925 2.0312-1.8438 2.3552-2.0926 4.8025-4.1621 6.75-6.6562 0.53891-0.77719 1.1947-1.7721 1.6562-2.6562 1.2956-0.34326 2.2005 0.81369 3 1.625 0.8797 0.9364 1.8431 1.6192 2.8125 2.375 1.0683 1.2034 0.51834 2.9983 0.75 4.4688 0.042084 0.17014 0.071869 0.36176 0.125 0.53125-0.85635 0.18695-1.4649 0.70911-1.4688 1.3438-0.004242 0.69611 0.73474 1.297 1.7188 1.4375 0.14056 0.02005 0.28833 0.030334 0.4375 0.03125 1.1933 0.007263 2.1514-0.64194 2.1562-1.4375 0.003265-0.53842-0.4386-0.9986-1.0938-1.25-0.31528-0.94473-0.95538-1.8901-0.71875-2.9062 0.24359-0.6842 1.1522-0.216 1.625-0.03125 0.9292 0.47476 1.9629 0.91849 2.875 1.3438 0.71576 0.51761 0.20465 1.4607-0.03125 2.1562-0.88461-0.019226-1.6315 0.37869-1.7812 1-0.046631 0.19333-0.03476 0.36923 0.03125 0.5625 0.065979 0.19324 0.18411 0.38983 0.34375 0.5625 0.31928 0.34531 0.82617 0.64139 1.4062 0.78125 1.1601 0.27966 2.2511-0.13284 2.4375-0.90625 0.15924-0.66064-0.39349-1.3798-1.2812-1.75 0.51129-0.36731 0.88962-0.93488 1.0625-1.5312 0.79175 0.092896 1.5373-0.17429 2.2812-0.40625 0.058228 0.08316 0.089386 0.18222 0.15625 0.25 0.07666 0.077728 0.16379 0.13275 0.25 0.1875 0.17239 0.10944 0.36362 0.1875 0.5625 0.1875 0.79556 0 1.4375-0.99417 1.4375-2.1875 0-1.1934-0.64194-2.1562-1.4375-2.1562-0.69614 0-1.2718 0.73389-1.4062 1.7188-0.005463 0.039978 0.003937 0.084229 0 0.125-0.60968 0.23032-1.0984 0.90167-1.7812 0.78125-2.3084-1.1705-4.6754-2.264-6.875-3.625-1.2449-0.86112-2.4178-2.011-3.5938-2.8438-0.5062-0.23764-0.84473-0.58041-1.0312-1.0938-0.51502-0.88159-1.8081-1.3988-1.9062-2.5938-0.090729-3.2363 1.0764-6.3329 1.7188-9.4688 0.42255-1.446 1.5342-2.5444 2.5-3.6562 1.5812-1.6315 3.446-3.1394 5.75-3.5312 1.3653-0.20334 2.7267-1.4115 4.125-0.71875 3.1883 1.1124 6.3336 2.4419 9.7188 2.8125 2.6757 0.29974 5.4242 0.55347 8.0938 0.09375 0.35013 0.23386 0.35355 1.1067 0.53125 1.5938 0.59183 2.6998 1.1447 5.4109 1.4688 8.1562-0.85501 1.1182-2.0647 2.0764-3.125 2.875-1.3632 1.2633-2.7476 2.5568-4.5 3.25-0.49738 0.18927-1.0186 0.20984-1.5312 0.125-0.002411-4.27e-4 0.002411-0.030853 0-0.03125 0.13962-0.79394-0.087494-1.5222-0.625-1.7812-0.7167-0.3454-1.7006 0.23749-2.2188 1.3125-0.5181 1.075-0.37292 2.2484 0.34375 2.5938 0.62164 0.29956 1.4822-0.091858 2.0312-0.90625 0.4708 0.11813 0.9035 0.34299 1.1875 0.6875-0.57727 0.2843-0.96072 0.74582-0.9375 1.25 0.036591 0.79471 1.0267 1.3986 2.2188 1.3438 1.1921-0.054901 2.1303-0.76776 2.0938-1.5625-0.032684-0.7096-0.82452-1.2408-1.8438-1.3125 0.33093-0.57199 0.60687-1.1606 1.2188-1.5 1.9664-1.4399 3.9098-2.9696 5.75-4.5312 0.74133-0.63666 2.0408-0.77862 2.5938 0.125 1.1474 1.5912 0.63034 3.709 0.21875 5.4688 0.001923 0.015778 9.2e-5 0.045013 0 0.0625-0.39584 0.1001-0.75113 0.26038-1.0312 0.46875-0.10123 0.075287-0.19971 0.16528-0.28125 0.25-0.32623 0.33874-0.46036 0.73645-0.375 1.125 0.17072 0.77704 1.2407 1.2248 2.4062 0.96875 1.1656-0.25607 1.9832-1.098 1.8125-1.875-0.11658-0.53058-0.67148-0.90311-1.375-1 0.041595-0.1456 0.082916-0.30188 0.125-0.4375 0.39133-1.8478 0.64328-4.0241-0.625-5.5938-0.42041-0.72928-1.3838-1.3113-1.9688-1.9688-1.0717-1.9411-1.2588-4.2406-1.5625-6.4062-0.10074-0.96835 0.22339-1.9377 0.09375-2.9062 3.2168-0.42374 6.2391 1.0494 9.25 1.9375 0.058868 0.1391-0.002472 0.45294 0.03125 0.71875-0.59094-0.12058-1.1464-0.007629-1.4375 0.375-0.48175 0.63312-0.10599 1.7461 0.84375 2.4688 0.94971 0.7226 2.112 0.78937 2.5938 0.15625 0.48172-0.63315 0.10596-1.7149-0.84375-2.4375-0.04364-0.033203-0.080566-0.063324-0.125-0.09375 0.24237-0.075073 0.47858-0.19894 0.59375-0.375 0.30246-0.38602-0.071106-0.89127 0.5-1 0.22455-0.16806 0.45651-0.4209 0.59375-0.71875 0.70032 0.70535 1.6004 0.95038 2.1562 0.53125 0.63519-0.47903 0.59351-1.6409-0.125-2.5938-0.71851-0.95282-1.8336-1.354-2.4688-0.875-0.51492 0.38831-0.56863 1.2206-0.1875 2.0312-0.22479 0.062378-0.46094 0.14493-0.625 0.25-0.68765 0.35434-1.5433 0.33539-2.1562-0.125-1.9139-0.91068-4.0936-0.98358-6.0625-1.6875-0.49234-0.23084-0.99661-0.63156-0.25-0.9375 2.5529-2.4212 4.8982-5.0648 7.4688-7.4688 0.38055-0.36752 0.70316-0.75095 1.0312-1.125 0.7999 0.72006 1.8086 0.91422 2.3438 0.40625 0.57703-0.5477 0.38403-1.697-0.4375-2.5625-0.82153-0.86557-1.9542-1.1102-2.5312-0.5625-0.36066 0.34228-0.42676 0.90451-0.21875 1.5-2.4513 2.5011-4.6196 5.2695-7.2188 7.625-1.3927 1.512-3.0912 2.9224-5.2188 3.125-3.2757 0.4559-6.544-0.32898-9.7812-0.75-2.5981-0.4606-5.1681-1.3707-7.25-3.0312-0.99466-0.9483-1.8034-2.2017-1.9062-3.625-0.20117-1.3999 0.40106-2.7508 0.28125-4.1562 0.014069-0.8685 0.066589-1.8766 0.84375-2.4062 1.5063-1.8823 3.912-2.6445 5.8438-4 0.88812-0.65335 1.851-1.5401 2.75-2.3125 1.0812-0.92374 2.0526-2.0517 2.9688-3.0938 0.75366-0.20136 1.429 0.43918 2.0312 0.8125 1.2707 0.79025 2.316 1.9583 3.8125 2.3125 2.1025 0.80542 4.4136 1.2019 6.625 0.625 0.48721-0.1293 0.98364-0.30786 1.4688-0.5 0.4248 1.0331 1.3162 1.6586 2.0312 1.4062 0.75021-0.2648 1.0222-1.406 0.625-2.5312-0.39719-1.1253-1.3435-1.8273-2.0938-1.5625-0.49219 0.17371-0.75034 0.73392-0.78125 1.4062-0.98062 0.1333-1.8726 0.61646-2.8438 0.78125-0.51941-0.75662 0.038086-1.7317-0.09375-2.5938 0.97897-0.021362 1.7896-0.5043 1.875-1.1875 0.098663-0.78946-0.78461-1.5707-1.9688-1.7188-1.1841-0.14804-2.2451 0.39804-2.3438 1.1875-0.079742 0.63794 0.50098 1.239 1.3438 1.5312-0.33118 0.76697-0.05957 2.0426-1.0312 2.3125-1.0651 0.21979-2.1245-0.28818-3-0.875-1.2932-0.89523-2.6443-1.711-4.0312-2.4062-1.0726-0.71695-0.73233-2.2534-0.65625-3.375 0.095947-1.2861 0.41623-2.886 1.75-3.375 0.11017 1.0296 0.68893 1.8125 1.4062 1.8125 0.79556 0 1.4375-0.96289 1.4375-2.1562 0-1.1934-0.64194-2.1562-1.4375-2.1562-0.73852 0-1.3227 0.83194-1.4062 1.9062-0.13599-0.14008-0.32327-0.24725-0.5-0.21875-0.41199-0.12198-1.3048 0.74377-0.9375-0.0625 0.016296-0.037506 0.021027-0.084503 0.03125-0.125 0.68802-0.2334 1.1562-0.74173 1.1562-1.3125 0-0.79559-0.92596-1.4375-2.0625-1.4375-0.56827 0-1.0648 0.17664-1.4375 0.4375-0.18634 0.1304-0.36453 0.26508-0.46875 0.4375-0.10425 0.17239-0.15625 0.36359-0.15625 0.5625 0 0.75754 0.84506 1.3798 1.9062 1.4375-0.074982 0.23981-0.13388 0.49307-0.21875 0.6875-0.75592 2.3582-0.1434 5.0929-1.6875 7.1875-1.5524 2.1808-3.5538 4.0948-5.875 5.4688-2.9505 1.8603-6.018 3.657-9.375 4.6562-1.5541 0.25119-3.1411-0.87582-3.375-2.4375-0.36887-1.104-1.5581-1.7575-1.9688-2.875-0.42548-2.9035-0.89325-5.7951-1.125-8.7188-0.35751-1.8678-0.9903-3.6974-1.3125-5.5625 0.26016-1.5214 1.3732-2.8188 2.6875-3.5312 0.71576-0.44711 1.3704 0.16251 1.8438 0.65625 0.5513 0.61279 1.4112 0.76202 1.8438 1.5 0.15836 0.22861 0.16055 0.61844 0.25 0.90625-0.90564 0.36026-1.4997 1.0818-1.3438 1.75 0.18079 0.77475 1.2754 1.1774 2.4375 0.90625 1.1621-0.27118 1.962-1.1315 1.7812-1.9062-0.14078-0.6033-0.83942-0.9888-1.6875-1 0.062897-0.13962 0.1351-0.27414 0.28125-0.34375 0.48459-0.60733 1.4162-0.7904 1.9375-1.3438 0.91299 0.71866 2.036 0.82166 2.5312 0.21875 0.50497-0.61478 0.17215-1.7113-0.75-2.4688-0.92215-0.75748-2.0888-0.86478-2.5938-0.25-0.12625 0.15369-0.19391 0.32855-0.21875 0.53125-0.024872 0.20267-0.00589 0.43124 0.0625 0.65625 0.018463 0.06076 0.037598 0.12634 0.0625 0.1875-0.71152 0.52496-1.5227 1.0146-2.4062 0.625-0.74213-0.31262-1.178-1.005-1.6875-1.5-0.89859-0.6116-1.7717-1.3574-2.2812-2.3125-0.34872-0.60376 0.25073-1.0548 0.8125-1.0625 0.74368-0.14487 1.5439-0.298 2.2188-0.65625 0.66782 0.78937 1.5939 1.1201 2.1875 0.71875 0.65906-0.44559 0.66836-1.6051 0-2.5938-0.58484-0.86505-1.4994-1.3256-2.1562-1.125-0.093842 0.028656-0.16763 0.069275-0.25 0.125-0.082397 0.055695-0.1572 0.14233-0.21875 0.21875-0.19998 0.24817-0.30045 0.58035-0.28125 0.96875-1.0899 0.29358-1.9433 1.3479-3.0938 1.4062 0.54602-0.76624 0.62552-1.6175 0.15625-2.0938-0.55838-0.56671-1.6812-0.36884-2.5312 0.46875-0.31879 0.31406-0.55081 0.67831-0.6875 1.0312-0.045563 0.11762-0.1011 0.22864-0.125 0.34375-0.095642 0.46045 0.002045 0.90414 0.28125 1.1875 0.42615 0.43253 1.1891 0.3775 1.9062-0.03125 0.27402 1.0437 1.1302 2.042 0.65625 3.125-0.88623 1.1618-1.972 2.2388-3.1875 3.0625-1.7139 0.3584-3.1476-0.92786-4.4688-1.8125-2.3299-1.4987-5.0822-2.2422-7.3125-3.9062-0.46332-0.41525-0.95728-0.79105-1.125-1.4375-0.04007-0.11383-0.078949-0.2554-0.125-0.375 0.88223-0.45789 1.3904-1.2507 1.1562-1.9062-0.20068-0.56192-0.88324-0.86731-1.6875-0.8125z" filter="url(#cj)" stroke-width=".2"/>
 <path d="m92.649 70.114c-0.010895 2.564 2.0719 0.22656 3.6579 0.71552 2.5156 0.96314 4.7371 1.8052 6.4007 2.8968 3.1459 2.1956 5.0767 3.1193 6.3279 7.3889 0.40274 2.5248 0.94617 6.0187 0.58392 8.6586-0.10355 1.1695-1.7651 3.1576-2.5855 4.058-1.2158 1.4305-3.2955 1.8429-5.1581 1.8247-1.7871-0.06012-3.7629 0.45398-5.5091 0.10748-2.1131-0.43802-6.9115-0.97971-8.7783-2.0374-3.3293-1.8111-2.3683-1.5482-3.6585-5.9488-2.1537-0.81427-2.7491-6.0793-3.6913-7.7342-0.58368-0.28473-1.2378 0.41809-1.0134 0.94751 0.054291 1.544 1.7052 3.5085 0.5015 4.7099-0.76154 0.74805-3.8762 0.34882-4.4174-0.5437-0.38379-0.49753-1.0393-1.0955-1.7452-0.75836-0.76453 0.27658-1.2873 1.3591-0.62875 1.953 1.2192 0.71194 3.1092 1.4453 4.4483 1.8771 0.92221 0.2215 2.3502-0.44638 3.2805-0.15637 0.93024 0.29001 1.7745 1.7438 2.3527 2.5027 0.52136 2.3291 1.0377 5.9948-1.7796 6.197-1.0956 1.1266-3.0894 2.3123-4.6615 1.7983-1.799 0.70276-2.2827-3.5816-3.8865-1.8156-0.2308-0.27084-0.91864-0.042664-0.57282 0.30212 0.71829 0.57217 2.5674 2.0076 2.1076 2.8867-0.18127 0.40045-1.8557 0.39981-2.3573 0.25787-0.52026 0.15765-0.24509 2.1395 0.26437 2.0455 3.3954-0.11737 5.2969-1.123 7.7193-2.0291 2.9431-0.97742 4.45-3.1105 7.1015-3.526 2.5165-0.27438 7.1097 0.74103 9.6431 1.5788 0.98077 0.066284 1.9722 0.52835 2.4252 1.376 0.9064 1.3137 0.72015 2.9519 0.65567 4.4383-0.21121 2.0977-0.39594 4.3279-1.7122 6.117-1.2407 1.6067-3.3464 2.2494-5.2568 2.8887-4.2629 1.4194-8.8728 1.8365-13.361 1.3525-1.3293-0.13278-2.7058-0.23346-3.9479-0.71765-1.8541-0.90982-3.1587-2.508-4.8753-3.6008-1.7945-1.3185-3.7444-2.4649-5.8532-3.291-0.2294-0.24777-0.76849-0.51154-1.0281-0.1785-0.10428 0.5115-0.036102 1.7605 0.33701 1.977 2.5154 1.7035 5.9837 2.7135 7.2371 5.4346 0.55212 0.85379-0.20297 2.2238-1.3264 2.4699-1.8821 0.49567-3.8589 0.27191-5.787 0.38028-0.61871-0.014038-1.2556 0.10309-1.856-0.00412-0.453 0.13449-1.1898 2.307-0.65225 2.1816 4.4233 0.35541 11.054-0.25482 12.268-2.5932 2.6368-0.99524 5.2711-0.41013 6.3955 0.22031 0.80316 1.2842-1.072 2.6888-4.3491 5.6219-0.66711 1.2175-2.0794 1.942-1.4418 3.0831 0.17642 0.38852 0.54144 0.81442 1.0281 0.53555 0.67639-0.34698 0.99704-1.0685 1.5323-1.566 2.308-2.6337 4.7098-5.3159 7.8825-7.0712 2.8927-1.4755 6.2307-1.3534 9.3359-2.26 2.0451-0.5144 4.0787-1.55 6.1888-1.7771 1.4154 0.015045 7.3759-0.075714 7.9483 1.1701 1.116 1.8225-0.18933 4.9309-0.50143 6.5839-0.63886 5.3221-0.66928 8.6028-7.5388 14.657-2.1255 2.0651-3.6811 0.24426-6.7555 0.28217-0.38019 0.11295-1.0942-0.14481-1.2454 0.22528 0.0177 0.4892-0.13837 1.559 0.25699 1.5614 4.983-0.36652 4.3232 0.25101 3.224 2.0226-0.54727 1.2149 0.039063 0.95523 0.52878 1.1123 1.2986-0.19955 1.937-1.4096 2.8935-2.1147 2.6517-2.3514 7.365-6.2544 8.8062-9.6637 1.8494-0.41046 2.34 1.6803 5.7274 3.9612 1.3776 1.679-0.1087 4.2261 1.3563 5.8536 0.55301 0.28802 2.1874 0.57892 1.2784-1.1259-0.17773-0.69681-1.0609-2.2157-0.41205-2.7735 0.67658-0.32144 2.582 0.97781 3.7677 1.398 1.7493 0.61984-0.21179 2.4072 0.44763 2.6377 0.32617 0.89087 1.9456-0.23865 2.2853-1.5511 0.95746 0.12878 1.8706-0.33713 2.843-0.58994-0.069672-3.7122-1.8306-1.0478-2.7346-1.0675-2.0375-0.98523-4.0444-2.0266-6.0199-3.1174s-3.3019-2.6429-5.2139-3.826c-0.66986-1.8579-2.5036-1.6094-2.2127-4.1394 0.21967-2.9495 1.1187-5.4134 1.8166-8.7905 0.97302-1.8662 2.4121-3.5082 4.1125-4.8346 1.1912-0.96826 2.6046-1.7445 4.1857-1.9684 1.2094-0.20728 2.4489-1.241 3.5703-0.79312 2.218 0.75085 5.4826 2.1037 7.807 2.5093 3.0324 0.68094 8.2192 1.0008 10.397 0.4967 0.50635 1.6242 1.8418 8.9087 1.843 9.6011-1.6135 2.0334-2.5372 2.1269-3.7759 3.5261-3.4616 2.8989-4.4602 3.1804-6.4758 2.3112-0.841 2.778 0.99213 0.64172 2.1758 2.972 1.7423-0.22736 1.304-1.4786 2.2289-2.097 1.4115-0.94376 4.6351-3.5468 4.921-3.7452 2.4146-2.4597 3.3517-1.5074 3.9954-0.23294 0.71893 1.8803-0.10757 3.7966-0.41443 6.0132 0.4989 0.26883 1.4446 0.22052 1.8256-2.3416 0.72214-3.9665-0.70032-5.2647-2.6012-6.8304-1.0686-1.5976-1.3998-4.3855-1.6464-6.4105-0.13446-1.1116 0.16913-1.8142 0.0466-2.927 2.8089-0.48968 7.0454 1.3357 9.1186 1.9504-0.53607 1.969 2.3575 1.3821 1.8984-0.042816 0.66031-0.10532 1.4282-1.2926 0.95377-1.8553-0.68948-0.81787-1.8161 1.1551-3.316 0.065338-2.9901-1.3775-5.824-1.1168-6.7941-2.1917 1.6054-1.3249 3.8756-3.9236 4.8808-4.8193 1.6716-1.8998 3.8281-3.4234 5.1847-5.5613 0.258-0.71744-1.0348-1.2714-1.4247-0.59045-3.4206 3.4299-4.7912 5.4369-7.7687 8.184-1.2782 1.4321-3.1429 2.9878-5.2015 3.2071-2.7674 0.45947-6.2134-0.18869-8.9717-0.58798-2.0624-0.26306-4.0874-0.84277-5.9351-1.7408-1.2187-0.65747-2.4492-1.4199-3.1835-2.5749-0.92151-1.3816-1.1088-3.1303-0.70041-4.6973 0.31302-1.2552-0.25403-3.346 0.84271-4.102 1.44-1.859 3.9745-2.6891 5.9184-4.023 2.3943-2.0852 3.3608-2.6238 5.6883-5.43 0.89435-0.44098 3.9455 2.527 4.831 2.7804 1.5534 0.51614 3.0916 1.1812 4.7696 1.2184 1.6548 0.11069 3.3229-0.2612 4.8053-0.9397 0.54608 0.17407 0.42099-1.3757-0.17667-1.3386-1.1623-0.030731-2.4595 0.73029-3.3621 0.82147-0.48212-0.5722 0.534-3.1257-0.47101-3.2041-1.8906-0.14755-0.003937 3.4131-2.7966 2.7475-0.94147 0.11148-3.7749-2.2824-4.6794-2.569-1.1815-0.74954-2.023-0.58957-1.9707-2.6235 0.108-3.425 0.75668-4.2568 1.8244-4.6756 0.54608-0.29721-0.079865-1.4573-1.4487-0.7074 0.30096-1.2984-0.29605-1.0109-0.91763-0.91226-1.1985 2.645-0.7128 4.3583-1.3595 6.8247-0.39325 1.4835-1.8526 3.0916-2.9671 4.248-1.518 1.6212-3.5182 2.7455-5.4167 3.932-2.3587 1.4012-4.8153 2.7098-7.4696 3.5538-1.5322 0.3299-3.151-0.79926-3.3943-2.2254-0.19626-1.0435-1.8547-2.1091-2.0338-3.1563-0.33548-2.6813-0.77582-4.9425-0.97614-7.6368-0.078949-1.4953-0.77786-3.6225-1.4167-6.3471 0.14124-1.4077 1.5347-3.1325 2.8915-3.6323 0.82184-0.32672 1.3551 0.84644 2.4202 1.4349 1.9215 0.92627 0.21979 2.4582 2.2994 1.9804 0.24823-1.903 3.9199-1.658 2.327-3.6514-0.81192-1.0391-2.1528 3.0536-4.8591-0.70731-0.76822-0.45334-2.6459-2.0011-2.4008-2.7843 0.13528-0.66263 3.0122-0.28513 4.1172-1.9871-1.8163-3.018-3.9367 1.623-5.7928 0.19223-1.1256 1.0799 1.3418 3.2679 0.3414 4.4351-0.75018 1.06-1.8842 2.0837-2.9526 2.8836-1.0704 0.33322-2.291-0.26559-3.3346-1.0024-2.9204-2.2793-6.5265-2.943-8.8704-5.0687-0.8638-0.48547-0.58112-2.639-2.0413-1.9207-0.54947 0.51178-0.32645 1.7479 0.23129 2.4457 0.14594 0.69772-0.19693 0.85706-1.4664 1.2741z" fill="none" filter="url(#bn)" stroke-width=".4"/>
 <path d="m85.344 63.006c-0.2681 0.01825-0.53152 0.087128-0.8125 0.1875-1.1238 0.40137-1.8301 1.3133-1.5625 2.0625 0.18677 0.52289 0.79984 0.81812 1.5312 0.8125 0.005219 0.46735 0.19113 0.97061 0.40625 1.3125 0.41135 0.51852-0.025391 1.2214-0.625 1.3125-0.19611 0.019897-0.34912 0.074615-0.46875 0.15625-0.55051-0.81342-1.3789-1.207-2-0.90625-0.71603 0.34671-0.89508 1.5196-0.375 2.5938 0.52008 1.0741 1.534 1.6592 2.25 1.3125 0.55154-0.26709 0.75897-1.0245 0.59375-1.8438 0.35135-0.022308 0.77097-0.2323 1.0625-0.3125 0.86099-0.36478 1.8032-0.34299 2.625 0.125 2.4672 0.95316 4.9721 1.9337 7.0625 3.5938 1.9043 1.25 3.7012 2.8342 4.4375 5.0625 0.6817 1.5835 0.69644 3.3483 0.96875 5.0312 0.18066 1.8922 0.3887 3.8598-0.09375 5.7188-0.68481 1.538-1.8694 2.7941-3 4-1.6203 1.2537-3.7557 1.3032-5.7188 1.3125-1.7909 0.15955-3.6054 0.35529-5.375-0.09375-2.6801-0.54199-5.5127-0.70117-8-1.9062-1.188-0.64224-2.6131-1.3299-2.8125-2.8125-0.24054-1.0457-0.44351-2.1049-0.78125-3.125-1.6122-0.83731-1.9956-2.8334-2.5625-4.4375-0.31519-0.87176-0.51498-1.7902-0.84375-2.6562 0.042419-0.049927 0.057434-0.10495 0.09375-0.15625 0.040192-0.056519 0.092621-0.098328 0.125-0.15625 0.022705-0.04068 0.043854-0.083954 0.0625-0.125 0.00415-0.009125-0.003937-0.022125 0-0.03125 0.039703-0.091766 0.075714-0.18918 0.09375-0.28125 0.018158-0.089081 0.034332-0.16254 0.03125-0.25-3.05e-4 -0.01059 6.1e-4 -0.020721 0-0.03125-0.0065-0.0979-0.027039-0.18835-0.0625-0.28125-0.03244-0.085022-0.10281-0.17798-0.15625-0.25-0.004974-0.006439 0.005127-0.024963 0-0.03125-0.055389-0.071014-0.11389-0.13025-0.1875-0.1875-0.006927-0.00528-0.02417 0.005127-0.03125 0-0.07489-0.055878-0.15982-0.11472-0.25-0.15625-0.007996-0.003632-0.023132 0.003479-0.03125 0-0.49979-0.21967-1.1782-0.23465-1.875 0.03125-1.1149 0.42542-1.8149 1.3817-1.5312 2.125 0.035461 0.092896 0.095886 0.17264 0.15625 0.25 0.060303 0.076965 0.10574 0.15832 0.1875 0.21875 0.005768 0.004425 0.025391-0.004364 0.03125 0 0.076324 0.053955 0.15866 0.11676 0.25 0.15625 0.20548 0.094666 0.45621 0.14081 0.71875 0.15625 0.37781 0.022217 0.76941-0.059235 1.1875-0.21875 0.044556-0.017029 0.081909-0.043884 0.125-0.0625 0.24536 1.3025 1.2544 2.5361 0.71875 3.875-0.47058 1.0446-1.9035 0.88373-2.875 0.78125-0.90195-0.13696-1.797-0.46307-2.2812-1.2812-0.18448-0.18054-0.43811-0.34152-0.71875-0.40625 0.050232-0.61346-0.13861-1.1328-0.5625-1.375-0.69074-0.39471-1.7517 0.12012-2.3438 1.1562-0.59207 1.0361-0.50324 2.199 0.1875 2.5938 0.48438 0.27676 1.1342 0.079224 1.6875-0.40625 1.441 0.77252 3.0073 1.3745 4.5938 1.7812 1.0881-0.004333 2.3263-0.6116 3.3125-0.03125 0.83557 0.61081 1.2775 1.3678 1.9062 2.1875 0.35931 0.84674 0.42749 1.8551 0.5 2.7812 0.12381 1.3434-0.11322 3.0542-1.5 3.5938-0.47601 0.09787-0.96155 0.17758-1.2188 0.625-1.1538 0.91037-2.6883 1.7501-4.1875 1.3125-0.68539 0.33499-1.3042-0.27722-1.6875-0.75-0.22415-0.23782-0.4176-0.55356-0.625-0.84375 0.60715-0.78702 0.73859-1.7229 0.25-2.2188-0.55838-0.56671-1.7124-0.33758-2.5625 0.5-0.85007 0.83756-1.0896 1.9645-0.53125 2.5312 0.40588 0.41193 1.1258 0.41687 1.8125 0.0625 0.62344 0.55731 1.327 1.1698 1.0938 2.0625-0.51065 0.46158-1.3072 0.37842-2 0.34375-0.53104-0.57947-1.2229-0.81775-1.75-0.5625-0.71603 0.34671-0.86383 1.4884-0.34375 2.5625s1.534 1.6592 2.25 1.3125c0.49228-0.23837 0.69894-0.84958 0.625-1.5625 2.7309-0.26883 5.2904-1.3846 7.8125-2.4062 2.0458-1.0058 3.7814-2.8093 6.125-3.0938 2.9241-0.16122 5.8206 0.52908 8.625 1.2812 0.99982 0.46222 2.3085 0.29907 3.0312 1.25 1.3166 1.3399 1.1737 3.4348 1.0312 5.1875-0.21802 2.3987-0.5253 5.1298-2.5 6.75-1.3669 1.2194-3.2891 1.6752-5 2.2812-4.6466 1.4635-9.5965 1.6896-14.406 1.0312-1.6612-0.11655-3.2588-0.75784-4.5-1.875-1.1335-0.98117-2.1894-1.8289-3.4375-2.6875-1.5586-1.0973-3.2618-2.0647-5-2.7812 0.13339-0.71875-0.049347-1.3496-0.53125-1.625-0.69074-0.39471-1.7204 0.12012-2.3125 1.1562-0.59207 1.0361-0.50326 2.199 0.1875 2.5938 0.53619 0.30637 1.2592 0.04715 1.8438-0.5625 0.098694 0.089844 0.22436 0.16721 0.375 0.21875 1.9715 1.2668 4.2915 2.0621 5.9062 3.8125 0.67612 0.76062 1.5234 1.8769 0.90625 2.9375-0.40628 0.85974-1.4008 1.1776-2.3125 1.25-2.0781 0.29245-4.1636 0.071411-6.25 0.25-0.34042-0.1228-0.5557 0.036102-0.71875 0.28125-0.17935-0.88773-0.72485-1.5312-1.375-1.5312-0.79556 0-1.4375 0.96286-1.4375 2.1562 0 1.1934 0.64194 2.1875 1.4375 2.1875 0.52136 0 0.96567-0.43994 1.2188-1.0625 0.10013 0.013763 0.20526-0.002167 0.34375-0.03125 3.2161 0.13159 6.5354-0.005981 9.5938-1.0938 0.78125-0.36017 1.6815-0.86484 2.0625-1.5625 2.0916-0.76468 4.5212-0.74933 6.5312 0.25 0.48962 0.99405-0.27344 1.9789-0.96875 2.625-1.1057 1.1716-2.4555 2.1298-3.5312 3.3125-0.39038 0.64963-1.003 1.0882-1.3125 1.7188-0.76196-0.63828-1.7036-0.78079-2.2188-0.3125-0.58865 0.53516-0.39648 1.6795 0.40625 2.5625s1.9114 1.1601 2.5 0.625c0.34134-0.3103 0.42654-0.82294 0.28125-1.375 0.6604-0.40564 1.0739-1.1876 1.6875-1.75 2.3524-2.6157 4.7467-5.347 7.9062-6.9688 3.0743-1.4254 6.5626-1.2701 9.75-2.3125 2.2948-0.70682 4.5988-1.8291 7.0625-1.5625 1.9744 0.07547 4.021-0.004547 5.9062 0.65625 1.0558 0.48709 1.1443 1.9386 1.0625 3-0.22427 1.9887-1.0366 3.8659-1.1562 5.875-0.26141 3.174-1.2149 6.3698-3.2812 8.8438-1.3842 1.6772-2.9557 3.2353-4.625 4.6562-1.0127 0.80194-2.487 0.50204-3.6562 0.1875-0.78198-0.1925-1.5759-0.35071-2.375-0.375-0.072144-0.74313-0.45056-1.3425-1-1.4688-0.77536-0.17825-1.6076 0.64948-1.875 1.8125-0.26736 1.163 0.13089 2.228 0.90625 2.4062 0.63644 0.1463 1.3149-0.35605 1.6875-1.1875 0.001892-0.004242 0.029388 0.004211 0.03125 0 1.007-0.06308 2.0398-0.16299 2.9375 0.21875 0.4194 0.37393 0.10593 0.9455-0.1875 1.4062-0.47461-0.15558-0.93103-0.14313-1.25 0.125-0.60901 0.5119-0.4866 1.6802 0.28125 2.5938 0.76788 0.91348 1.891 1.2306 2.5 0.71875 0.59665-0.50156 0.4769-1.5958-0.25-2.5 0.64236-0.53207 1.3089-1.2925 2.0312-1.8438 2.3552-2.0926 4.8025-4.1621 6.75-6.6562 0.53891-0.77719 1.1947-1.7721 1.6562-2.6562 1.2956-0.34326 2.2005 0.81369 3 1.625 0.8797 0.9364 1.8431 1.6192 2.8125 2.375 1.0684 1.2034 0.51834 2.9983 0.75 4.4688 0.042084 0.17014 0.071899 0.36176 0.125 0.53125-0.85632 0.18695-1.4649 0.70911-1.4688 1.3438-0.004242 0.69611 0.73474 1.297 1.7188 1.4375 0.14056 0.02005 0.28833 0.030334 0.4375 0.03125 1.1933 0.007263 2.1514-0.64194 2.1562-1.4375 0.003296-0.53842-0.4386-0.9986-1.0938-1.25-0.31528-0.94473-0.95535-1.8901-0.71875-2.9062 0.24359-0.6842 1.1523-0.216 1.625-0.03125 0.9292 0.47476 1.963 0.91849 2.875 1.3438 0.71576 0.51761 0.20465 1.4607-0.03125 2.1562-0.88458-0.019226-1.6315 0.37869-1.7812 1-0.0466 0.19333-0.034729 0.36923 0.03125 0.5625 0.06601 0.19324 0.18411 0.38983 0.34375 0.5625 0.31928 0.34531 0.8262 0.64139 1.4062 0.78125 1.1601 0.27966 2.2511-0.13284 2.4375-0.90625 0.15927-0.66064-0.39349-1.3798-1.2812-1.75 0.51129-0.36731 0.88965-0.93488 1.0625-1.5312 0.79178 0.092896 1.5373-0.17429 2.2812-0.40625 0.058228 0.08316 0.089417 0.18222 0.15625 0.25 0.076691 0.077728 0.16382 0.13275 0.25 0.1875 0.17242 0.10944 0.36362 0.1875 0.5625 0.1875 0.79556 0 1.4375-0.99417 1.4375-2.1875 0-1.1934-0.64194-2.1562-1.4375-2.1562-0.69611 0-1.2718 0.73389-1.4062 1.7188-0.005463 0.039978 0.003967 0.084229 0 0.125-0.60968 0.23032-1.0984 0.90167-1.7812 0.78125-2.3084-1.1705-4.6754-2.264-6.875-3.625-1.2448-0.86112-2.4178-2.011-3.5938-2.8438-0.5062-0.23764-0.8447-0.58041-1.0312-1.0938-0.51502-0.88159-1.8081-1.3988-1.9062-2.5938-0.090729-3.2363 1.0764-6.3329 1.7188-9.4688 0.42258-1.446 1.5342-2.5444 2.5-3.6562 1.5812-1.6315 3.446-3.1394 5.75-3.5312 1.3653-0.20334 2.7267-1.4115 4.125-0.71875 3.1883 1.1124 6.3336 2.4419 9.7188 2.8125 2.6757 0.29974 5.4242 0.55347 8.0938 0.09375 0.35016 0.23386 0.35358 1.1067 0.53125 1.5938 0.59186 2.6998 1.1447 5.4109 1.4688 8.1562-0.85498 1.1182-2.0647 2.0764-3.125 2.875-1.3632 1.2633-2.7476 2.5568-4.5 3.25-0.49738 0.18927-1.0186 0.20984-1.5312 0.125-0.002411-4.27e-4 0.002411-0.030853 0-0.03125 0.13965-0.79394-0.087494-1.5222-0.625-1.7812-0.71668-0.3454-1.7006 0.23749-2.2188 1.3125-0.5181 1.075-0.37292 2.2484 0.34375 2.5938 0.62164 0.29956 1.4823-0.091858 2.0312-0.90625 0.4708 0.11813 0.9035 0.34299 1.1875 0.6875-0.57727 0.2843-0.96069 0.74582-0.9375 1.25 0.036591 0.79471 1.0267 1.3986 2.2188 1.3438 1.1921-0.054901 2.1303-0.76776 2.0938-1.5625-0.032684-0.7096-0.82452-1.2408-1.8438-1.3125 0.33096-0.57199 0.60687-1.1606 1.2188-1.5 1.9664-1.4399 3.9098-2.9696 5.75-4.5312 0.74136-0.63666 2.0408-0.77862 2.5938 0.125 1.1474 1.5912 0.63034 3.709 0.21875 5.4688 0.001923 0.015778 9.2e-5 0.045013 0 0.0625-0.39584 0.1001-0.75113 0.26038-1.0312 0.46875-0.10123 0.075287-0.19971 0.16528-0.28125 0.25-0.3262 0.33874-0.46036 0.73645-0.375 1.125 0.17072 0.77704 1.2407 1.2248 2.4062 0.96875 1.1656-0.25607 1.9832-1.098 1.8125-1.875-0.11655-0.53058-0.67148-0.90311-1.375-1 0.041595-0.1456 0.082916-0.30188 0.125-0.4375 0.39133-1.8478 0.64328-4.0241-0.625-5.5938-0.42041-0.72928-1.3838-1.3113-1.9688-1.9688-1.0717-1.9411-1.2588-4.2406-1.5625-6.4062-0.10074-0.96835 0.22342-1.9377 0.09375-2.9062 3.2169-0.42374 6.2391 1.0494 9.25 1.9375 0.058899 0.1391-0.002441 0.45294 0.03125 0.71875-0.59091-0.12058-1.1464-0.007629-1.4375 0.375-0.48175 0.63312-0.10596 1.7461 0.84375 2.4688 0.94971 0.7226 2.112 0.78937 2.5938 0.15625 0.48175-0.63315 0.10599-1.7149-0.84375-2.4375-0.04364-0.033203-0.080566-0.063324-0.125-0.09375 0.24237-0.075073 0.47861-0.19894 0.59375-0.375 0.30249-0.38602-0.071106-0.89127 0.5-1 0.22455-0.16806 0.45651-0.4209 0.59375-0.71875 0.70032 0.70535 1.6004 0.95038 2.1562 0.53125 0.63519-0.47903 0.59354-1.6409-0.125-2.5938-0.71851-0.95282-1.8336-1.354-2.4688-0.875-0.51492 0.38831-0.56863 1.2206-0.1875 2.0312-0.22476 0.062378-0.46094 0.14493-0.625 0.25-0.68765 0.35434-1.5433 0.33539-2.1562-0.125-1.9139-0.91068-4.0935-0.98358-6.0625-1.6875-0.49234-0.23084-0.99661-0.63156-0.25-0.9375 2.5529-2.4212 4.8982-5.0648 7.4688-7.4688 0.38058-0.36752 0.70316-0.75095 1.0312-1.125 0.7999 0.72006 1.8086 0.91422 2.3438 0.40625 0.57703-0.5477 0.38406-1.697-0.4375-2.5625-0.82153-0.86557-1.9542-1.1102-2.5312-0.5625-0.36066 0.34228-0.42673 0.90451-0.21875 1.5-2.4513 2.5011-4.6196 5.2695-7.2188 7.625-1.3927 1.512-3.0912 2.9224-5.2188 3.125-3.2757 0.4559-6.544-0.32898-9.7812-0.75-2.5981-0.4606-5.1681-1.3707-7.25-3.0312-0.99463-0.9483-1.8034-2.2017-1.9062-3.625-0.20114-1.3999 0.40109-2.7508 0.28125-4.1562 0.014069-0.8685 0.06662-1.8766 0.84375-2.4062 1.5063-1.8823 3.912-2.6445 5.8438-4 0.88812-0.65335 1.851-1.5401 2.75-2.3125 1.0812-0.92374 2.0527-2.0517 2.9688-3.0938 0.75369-0.20136 1.429 0.43918 2.0312 0.8125 1.2707 0.79025 2.316 1.9583 3.8125 2.3125 2.1025 0.80542 4.4136 1.2019 6.625 0.625 0.48724-0.1293 0.98364-0.30786 1.4688-0.5 0.42484 1.0331 1.3162 1.6586 2.0312 1.4062 0.75021-0.2648 1.0222-1.406 0.625-2.5312-0.39716-1.1253-1.3435-1.8273-2.0938-1.5625-0.49216 0.17371-0.75034 0.73392-0.78125 1.4062-0.98062 0.1333-1.8726 0.61646-2.8438 0.78125-0.51938-0.75662 0.038086-1.7317-0.09375-2.5938 0.97897-0.021362 1.7896-0.5043 1.875-1.1875 0.098694-0.78946-0.78461-1.5707-1.9688-1.7188-1.1841-0.14804-2.2451 0.39804-2.3438 1.1875-0.079742 0.63794 0.50101 1.239 1.3438 1.5312-0.33118 0.76697-0.05954 2.0426-1.0312 2.3125-1.0651 0.21979-2.1245-0.28818-3-0.875-1.2932-0.89523-2.6443-1.711-4.0312-2.4062-1.0726-0.71695-0.73233-2.2534-0.65625-3.375 0.095978-1.2861 0.41623-2.886 1.75-3.375 0.1102 1.0296 0.68893 1.8125 1.4062 1.8125 0.79556 0 1.4375-0.96289 1.4375-2.1562 0-1.1934-0.64191-2.1562-1.4375-2.1562-0.73852 0-1.3226 0.83194-1.4062 1.9062-0.13599-0.14008-0.32327-0.24725-0.5-0.21875-0.41196-0.12198-1.3048 0.74377-0.9375-0.0625 0.016296-0.037506 0.021027-0.084503 0.03125-0.125 0.68805-0.2334 1.1562-0.74173 1.1562-1.3125 0-0.79559-0.92596-1.4375-2.0625-1.4375-0.56827 0-1.0648 0.17664-1.4375 0.4375-0.18634 0.1304-0.3645 0.26508-0.46875 0.4375-0.10422 0.17239-0.15625 0.36359-0.15625 0.5625 0 0.75754 0.84509 1.3798 1.9062 1.4375-0.074951 0.23981-0.13388 0.49307-0.21875 0.6875-0.75589 2.3582-0.14337 5.0929-1.6875 7.1875-1.5524 2.1808-3.5538 4.0948-5.875 5.4688-2.9505 1.8603-6.018 3.657-9.375 4.6562-1.554 0.25119-3.1411-0.87582-3.375-2.4375-0.36887-1.104-1.558-1.7575-1.9688-2.875-0.42545-2.9035-0.89322-5.7951-1.125-8.7188-0.35748-1.8678-0.9903-3.6974-1.3125-5.5625 0.26016-1.5214 1.3733-2.8188 2.6875-3.5312 0.71576-0.44711 1.3704 0.16251 1.8438 0.65625 0.5513 0.61279 1.4112 0.76202 1.8438 1.5 0.15836 0.22861 0.16055 0.61844 0.25 0.90625-0.90564 0.36026-1.4997 1.0818-1.3438 1.75 0.18079 0.77475 1.2754 1.1774 2.4375 0.90625 1.1621-0.27118 1.962-1.1315 1.7812-1.9062-0.14078-0.6033-0.83939-0.9888-1.6875-1 0.062927-0.13962 0.13513-0.27414 0.28125-0.34375 0.48462-0.60733 1.4163-0.7904 1.9375-1.3438 0.91299 0.71866 2.036 0.82166 2.5312 0.21875 0.50497-0.61478 0.17215-1.7113-0.75-2.4688-0.92215-0.75748-2.0888-0.86478-2.5938-0.25-0.12622 0.15369-0.19388 0.32855-0.21875 0.53125-0.024841 0.20267-0.00589 0.43124 0.0625 0.65625 0.018463 0.06076 0.037598 0.12634 0.0625 0.1875-0.71152 0.52496-1.5227 1.0146-2.4062 0.625-0.74213-0.31262-1.178-1.005-1.6875-1.5-0.89856-0.6116-1.7717-1.3574-2.2812-2.3125-0.34872-0.60376 0.25073-1.0548 0.8125-1.0625 0.74368-0.14487 1.5439-0.298 2.2188-0.65625 0.66782 0.78937 1.5939 1.1201 2.1875 0.71875 0.65909-0.44559 0.66836-1.6051 0-2.5938-0.58481-0.86505-1.4994-1.3256-2.1562-1.125-0.093842 0.028656-0.1676 0.069275-0.25 0.125-0.082397 0.055695-0.1572 0.14233-0.21875 0.21875-0.19998 0.24817-0.30045 0.58035-0.28125 0.96875-1.0899 0.29358-1.9433 1.3479-3.0938 1.4062 0.54605-0.76624 0.62552-1.6175 0.15625-2.0938-0.55838-0.56671-1.6812-0.36884-2.5312 0.46875-0.31876 0.31406-0.55081 0.67831-0.6875 1.0312-0.045563 0.11762-0.10107 0.22864-0.125 0.34375-0.095642 0.46045 0.002075 0.90414 0.28125 1.1875 0.42618 0.43253 1.1891 0.3775 1.9062-0.03125 0.27402 1.0437 1.1303 2.042 0.65625 3.125-0.88623 1.1618-1.972 2.2388-3.1875 3.0625-1.7139 0.3584-3.1476-0.92786-4.4688-1.8125-2.3299-1.4987-5.0822-2.2422-7.3125-3.9062-0.46329-0.41525-0.95728-0.79105-1.125-1.4375-0.04007-0.11383-0.078918-0.2554-0.125-0.375 0.88223-0.45789 1.3904-1.2507 1.1562-1.9062-0.20068-0.56192-0.88324-0.86731-1.6875-0.8125z" fill="#ffd42a" stroke-width=".2"/>
 <g fill-rule="evenodd">
  <path d="m107.54 101.17c0 2.9284-2.9977 6.1401-6.4847 6.1401s-6.317-2.3766-6.317-5.305 2.9977-6.1401 6.4847-6.1401c1.7435 0 3.3228 0.59415 4.4661 1.5544 1.1434 0.9602 1.8509 2.2865 1.8509 3.7506z" fill="#f00" opacity=".778" stroke="#666" stroke-width=".574"/>
  <g stroke-width="2.31">
   <path d="m102.68 106.59c0 0.5152-2.2562 1.5227-4.4163 1.5227s-3.5778-1.7935-3.5778-2.3087c0-0.51517 1.1941 1.0316 3.3542 1.0316s4.6399-0.76077 4.6399-0.24564z" fill="url(#d)" filter="url(#c)" opacity=".771"/>
   <path d="m107.33 104.18c0.4173 0.36191-0.35147 2.4807-1.8688 3.8316s-3.9659 0.97763-4.3832 0.61572c-0.4173-0.36188 1.6743-0.022156 3.1917-1.373 1.5174-1.3509 2.6431-3.4362 3.0604-3.0742z" fill="url(#ci)" filter="url(#c)" opacity=".771"/>
   <path d="m102.68 106.59c0 0.5152-2.2562 1.5227-4.4163 1.5227s-3.5778-1.7935-3.5778-2.3087c0-0.51517 1.1941 1.0316 3.3542 1.0316s4.6399-0.76077 4.6399-0.24564z" fill="url(#d)" filter="url(#c)" opacity=".771"/>
   <path d="m102.68 106.59c0 0.5152-2.2562 1.5227-4.4163 1.5227s-3.5778-1.7935-3.5778-2.3087c0-0.51517 1.1941 1.0316 3.3542 1.0316s4.6399-0.76077 4.6399-0.24564z" fill="url(#d)" filter="url(#c)" opacity=".771"/>
  </g>
  <path d="m107.36 100.82c0 3.2462-3.1912 6.8066-6.9032 6.8066s-6.7246-2.6346-6.7246-5.8809 3.1912-6.8066 6.9032-6.8066c1.856 0 3.5372 0.65866 4.7543 1.7231s1.9703 2.5347 1.9703 4.1578z" fill="#ff7f00" opacity=".806" stroke-width="1.704"/>
 </g>
 <g stroke-width=".4">
  <path d="m92.649 70.114c-0.009979 2.564 2.072 0.226 3.658 0.715 2.516 0.96301 4.737 1.805 6.401 2.897 3.146 2.196 5.077 3.119 6.328 7.389 0.40298 2.525 0.94598 6.018 0.58398 8.658-0.104 1.17-1.765 3.158-2.586 4.058-1.216 1.431-3.295 1.843-5.158 1.825-1.787-0.060013-3.763 0.454-5.509 0.108-2.113-0.438-6.911-0.98001-8.778-2.038-3.329-1.811-2.368-1.548-3.659-5.949-2.153-0.814-2.749-6.079-3.691-7.734-0.58402-0.285-1.238 0.418-1.013 0.948 0.053986 1.544 1.705 3.508 0.50098 4.709-0.76099 0.74901-3.876 0.349-4.417-0.543-0.384-0.498-1.04-1.096-1.745-0.759-0.76502 0.27701-1.288 1.36-0.629 1.953 1.219 0.71201 3.109 1.446 4.448 1.878 0.922 0.22099 2.35-0.44701 3.281-0.157 0.92999 0.28999 1.774 1.744 2.352 2.503 0.522 2.329 1.038 5.995-1.779 6.197-1.096 1.127-3.09 2.312-4.662 1.798-1.799 0.70299-2.283-3.581-3.886-1.815-0.23099-0.27101-0.91901-0.042999-0.573 0.302 0.71799 0.57199 2.567 2.007 2.107 2.886-0.181 0.401-1.855 0.40001-2.357 0.25801-0.52002 0.15799-0.245 2.14 0.26498 2.046 3.395-0.11801 5.296-1.123 7.719-2.029 2.943-0.978 4.45-3.111 7.101-3.526 2.517-0.27499 7.11 0.741 9.643 1.578 0.98099 0.067001 1.973 0.52899 2.426 1.377 0.90601 1.313 0.72 2.951 0.655 4.438-0.211 2.098-0.396 4.328-1.712 6.117-1.241 1.607-3.346 2.249-5.257 2.889-4.263 1.419-8.873 1.836-13.36 1.352-1.33-0.133-2.706-0.233-3.948-0.71799-1.854-0.909-3.159-2.508-4.876-3.6-1.794-1.319-3.744-2.465-5.853-3.291-0.229-0.24802-0.768-0.51202-1.028-0.17902-0.104 0.51199-0.036011 1.761 0.33701 1.977 2.515 1.704 5.984 2.714 7.237 5.435 0.552 0.854-0.203 2.223-1.326 2.47-1.882 0.49503-3.859 0.272-5.787 0.38-0.61899-0.013977-1.256 0.103-1.856-0.003998-0.453 0.134-1.19 2.307-0.65302 2.181 4.424 0.35602 11.055-0.254 12.268-2.593 2.637-0.995 5.271-0.41 6.396 0.22 0.80301 1.285-1.072 2.689-4.349 5.622-0.66699 1.218-2.08 1.942-1.442 3.083 0.176 0.38901 0.54098 0.815 1.028 0.53601 0.676-0.34702 0.99701-1.069 1.532-1.566 2.308-2.634 4.71-5.316 7.883-7.071 2.892-1.476 6.23-1.354 9.336-2.26 2.045-0.51502 4.078-1.55 6.189-1.777 1.415 0.015015 7.375-0.075989 7.948 1.17 1.116 1.822-0.189 4.931-0.50198 6.584-0.638 5.322-0.66901 8.602-7.538 14.656-2.126 2.066-3.682 0.245-6.756 0.28299-0.38 0.11301-1.094-0.14499-1.245 0.22501 0.016998 0.48901-0.13901 1.559 0.25699 1.561 4.983-0.366 4.323 0.25101 3.224 2.023-0.548 1.215 0.039001 0.95499 0.52802 1.112 1.299-0.199 1.937-1.41 2.894-2.115 2.652-2.351 7.365-6.254 8.806-9.663 1.849-0.41098 2.34 1.68 5.727 3.961 1.378 1.679-0.108 4.226 1.357 5.853 0.55298 0.28802 2.187 0.57901 1.278-1.125-0.17801-0.69699-1.061-2.216-0.41199-2.774 0.677-0.32101 2.582 0.978 3.768 1.398 1.749 0.62-0.21201 2.407 0.44699 2.638 0.327 0.89099 1.946-0.23901 2.286-1.551 0.957 0.12802 1.87-0.33798 2.843-0.59-0.070007-3.713-1.831-1.048-2.735-1.068-2.037-0.98498-4.044-2.026-6.02-3.117-1.975-1.091-3.302-2.643-5.214-3.826-0.66901-1.858-2.503-1.61-2.212-4.14 0.21899-2.949 1.118-5.413 1.816-8.79 0.97299-1.866 2.412-3.508 4.113-4.835 1.191-0.96799 2.604-1.744 4.185-1.968 1.21-0.207 2.449-1.241 3.571-0.793 2.218 0.75101 5.482 2.103 7.807 2.509 3.032 0.681 8.219 1.001 10.397 0.49701 0.50598 1.624 1.842 8.908 1.843 9.601-1.614 2.033-2.537 2.127-3.776 3.526-3.462 2.899-4.46 3.18-6.476 2.311-0.841 2.778 0.99197 0.642 2.176 2.972 1.742-0.22699 1.304-1.479 2.229-2.097 1.411-0.944 4.635-3.547 4.921-3.745 2.415-2.46 3.352-1.508 3.995-0.233 0.71899 1.88-0.107 3.796-0.414 6.013 0.49899 0.26898 1.445 0.22098 1.826-2.342 0.72198-3.966-0.70102-5.264-2.602-6.83-1.068-1.598-1.399-4.385-1.646-6.41-0.134-1.112 0.16901-1.815 0.046997-2.927 2.808-0.48999 7.045 1.335 9.118 1.95-0.53601 1.969 2.358 1.382 1.899-0.042999 0.66-0.10498 1.428-1.292 0.953-1.855-0.689-0.81799-1.816 1.155-3.316 0.065002-2.99-1.377-5.824-1.117-6.794-2.191 1.606-1.325 3.876-3.924 4.881-4.82 1.672-1.9 3.828-3.423 5.185-5.561 0.258-0.718-1.035-1.271-1.425-0.591-3.42 3.43-4.791 5.437-7.768 8.184-1.279 1.433-3.143 2.988-5.202 3.208-2.767 0.45898-6.213-0.18903-8.972-0.58801-2.062-0.26401-4.087-0.84299-5.935-1.741-1.219-0.65799-2.449-1.42-3.183-2.575-0.922-1.382-1.109-3.13-0.70102-4.697 0.31302-1.256-0.254-3.346 0.84302-4.102 1.44-1.859 3.974-2.69 5.918-4.023 2.395-2.086 3.361-2.624 5.689-5.431 0.89401-0.44 3.945 2.527 4.831 2.781 1.553 0.51599 3.091 1.181 4.769 1.218 1.655 0.11101 3.323-0.26099 4.806-0.939 0.54599 0.174 0.42099-1.376-0.177-1.339-1.162-0.030991-2.46 0.73001-3.362 0.82101-0.482-0.57201 0.534-3.125-0.47101-3.204-1.891-0.147-0.003998 3.413-2.797 2.748-0.94101 0.11101-3.775-2.283-4.679-2.569-1.182-0.75-2.023-0.59-1.971-2.624 0.108-3.425 0.75699-4.257 1.824-4.675 0.547-0.298-0.07901-1.458-1.448-0.70801 0.301-1.298-0.29602-1.011-0.918-0.91199-1.198 2.645-0.71301 4.358-1.359 6.825-0.39401 1.483-1.853 3.091-2.967 4.248-1.518 1.621-3.519 2.745-5.417 3.932-2.359 1.401-4.815 2.709-7.47 3.553-1.532 0.33-3.151-0.79901-3.394-2.225-0.19598-1.044-1.855-2.109-2.034-3.156-0.33499-2.682-0.77499-4.943-0.97598-7.637-0.07901-1.495-0.77802-3.623-1.416-6.347 0.14102-1.408 1.534-3.133 2.891-3.633 0.82199-0.326 1.355 0.847 2.42 1.435 1.922 0.927 0.22 2.458 2.3 1.981 0.24799-1.903 3.92-1.658 2.327-3.652-0.81201-1.039-2.153 3.054-4.86-0.707-0.768-0.453-2.645-2.001-2.4-2.784 0.13501-0.66299 3.012-0.285 4.117-1.987-1.816-3.018-3.937 1.623-5.793 0.192-1.126 1.08 1.342 3.268 0.341 4.435-0.75 1.06-1.884 2.084-2.952 2.884-1.071 0.33299-2.291-0.26601-3.335-1.003-2.92-2.279-6.526-2.943-8.87-5.069-0.86398-0.485-0.58099-2.639-2.041-1.92-0.55002 0.51201-0.327 1.748 0.23099 2.445 0.146 0.698-0.19699 0.857-1.467 1.275z" fill="none" filter="url(#bn)"/>
  <g stroke-linejoin="bevel">
   <path d="m65.135 84.529a1.2514 1.877 0 1 1 -2.5027 -1.4301 1.2514 1.877 0 1 1 2.5027 1.4301z" fill="url(#a)" filter="url(#ch)" opacity=".5"/>
   <path d="m70.574 80.425a0.51382 0.77072 0 1 1 -1.0276 -2.6931 0.51382 0.77072 0 1 1 1.0276 2.6931z" fill="url(#a)" filter="url(#cg)" opacity=".5"/>
   <path d="m84.535 69.391a1.2972 1.9458 0 1 1 -2.5944 1.2562 1.2972 1.9458 0 1 1 2.5944 -1.2562z" fill="url(#a)" filter="url(#cf)" opacity=".5"/>
   <path d="m85.987 66.023a0.48474 0.72712 0 1 1 -0.96951 -2.7146 0.48474 0.72712 0 1 1 0.96951 2.7146z" fill="url(#a)" filter="url(#ce)" opacity=".5"/>
   <path d="m108.93 64.682a1.194 1.791 0 1 1 -2.388 1.6144 1.194 1.791 0 1 1 2.388 -1.6144z" fill="url(#a)" filter="url(#cd)" opacity=".5"/>
   <path d="m102.57 66.722a1.0115 1.5173 0 1 1 -2.0231 -2.0533 1.0115 1.5173 0 1 1 2.0231 2.0533z" fill="url(#a)" filter="url(#cc)" opacity=".5"/>
   <path d="m112.77 70.347a0.91482 1.3722 0 1 1 -1.8296 2.2274 0.91482 1.3722 0 1 1 1.8296 -2.2274z" fill="url(#a)" filter="url(#cb)" opacity=".5"/>
   <path d="m108.03 74.381a0.3275 0.49124 0 1 1 0.65497 2.8071 0.3275 0.49124 0 1 1 -0.65497 -2.8071z" fill="url(#b)" filter="url(#ca)" opacity=".5"/>
   <path d="m131.21 77.122a1.4412 2.1619 0 1 1 -2.8825 0 1.4412 2.1619 0 1 1 2.8825 0z" fill="url(#a)" filter="url(#bz)" opacity=".5"/>
   <path d="m128.12 75.167a2.0589 1.4412 0 1 1 -4.1179 0 2.0589 1.4412 0 1 1 4.1179 0z" fill="url(#a)" filter="url(#by)" opacity=".5"/>
   <path d="m136.33 82.487a0.17876 0.26815 0 1 1 -0.35754 2.8602 0.17876 0.26815 0 1 1 0.35754 -2.8602z" fill="url(#a)" filter="url(#bx)" opacity=".5"/>
   <path d="m142.25 87.349a1.3591 2.0386 0 1 1 -2.7182 0.95935 1.3591 2.0386 0 1 1 2.7182 -0.95935z" fill="url(#a)" filter="url(#bw)" opacity=".5"/>
   <path d="m147.08 96.926a1.0454 1.568 0 1 1 -2.0907 1.9844 1.0454 1.568 0 1 1 2.0907 -1.9844z" fill="url(#a)" filter="url(#bv)" opacity=".5"/>
   <path d="m148.42 108.99a1.1507 1.7261 0 1 1 -2.3015 1.7355 1.1507 1.7261 0 1 1 2.3015 -1.7355z" fill="url(#a)" filter="url(#bu)" opacity=".5"/>
   <path d="m144.85 113.24a0.87271 1.3091 0 1 1 -1.7454 2.294 0.87271 1.3091 0 1 1 1.7454 -2.294z" fill="url(#a)" filter="url(#bt)" opacity=".5"/>
   <path d="m137.28 127.39a0.30926 0.4639 0 1 1 0.61853 2.8154 0.30926 0.4639 0 1 1 -0.61853 -2.8154z" fill="url(#b)" filter="url(#bs)" opacity=".5"/>
   <path d="m127.03 127.77a0.066303 0.099455 0 1 1 0.13263 2.8795 0.066303 0.099455 0 1 1 -0.13263 -2.8795z" fill="url(#b)" filter="url(#br)" opacity=".5"/>
   <path d="m124.89 126.96a1.2983 1.9475 0 1 1 -2.5967 -1.2514 1.2983 1.9475 0 1 1 2.5967 1.2514z" fill="url(#a)" filter="url(#bq)" opacity=".5"/>
   <path d="m118.45 134.36a1.4412 2.1619 0 1 1 -2.8825 0 1.4412 2.1619 0 1 1 2.8825 0z" fill="url(#a)" filter="url(#dv)" opacity=".5"/>
   <path d="m112.19 137.7a0.33777 0.50665 0 1 1 -0.67554 2.8022 0.33777 0.50665 0 1 1 0.67554 -2.8022z" fill="url(#a)" filter="url(#du)" opacity=".5"/>
   <path d="m106.72 136.83a0.008788 0.013182 0 1 1 -0.017578 2.8824 0.008788 0.013182 0 1 1 0.017578 -2.8824z" fill="url(#a)" filter="url(#dt)" opacity=".5"/>
   <path d="m88.871 138.99a1.1033 1.6549 0 1 1 -2.2065 1.8547 1.1033 1.6549 0 1 1 2.2065 -1.8547z" fill="url(#a)" filter="url(#ds)" opacity=".5"/>
   <path d="m85.054 135.92a1.4046 2.1069 0 1 1 -2.8092 -0.64581 1.4046 2.1069 0 1 1 2.8092 0.64581z" fill="url(#a)" filter="url(#dr)" opacity=".5"/>
   <path d="m66.186 123.51a1.0664 1.5997 0 1 1 -2.1329 1.939 1.0664 1.5997 0 1 1 2.1329 -1.939z" fill="url(#a)" filter="url(#dq)" opacity=".5"/>
   <path d="m53.383 116.86a1.4412 2.1619 0 1 1 -2.8825 0 1.4412 2.1619 0 1 1 2.8825 0z" fill="url(#a)" filter="url(#dp)" opacity=".5"/>
   <path d="m55.87 106.87a1.2514 1.877 0 1 1 -2.5027 -1.4301 1.2514 1.877 0 1 1 2.5027 1.4301z" fill="url(#a)" filter="url(#do)" opacity=".5"/>
   <path d="m64.152 99.966a1.2972 1.9458 0 1 1 -2.5944 1.2562 1.2972 1.9458 0 1 1 2.5944 -1.2562z" fill="url(#a)" filter="url(#dn)" opacity=".5"/>
   <path d="m65.307 96.268a1.0115 1.5173 0 1 1 -2.0231 -2.0533 1.0115 1.5173 0 1 1 2.0231 2.0533z" fill="url(#a)" filter="url(#dm)" opacity=".5"/>
   <path d="m65.135 84.529a1.2514 1.877 0 1 1 -2.5027 -1.4301 1.2514 1.877 0 1 1 2.5027 1.4301z" fill="url(#a)" filter="url(#dl)" opacity=".5"/>
   <path d="m70.574 80.425a0.51382 0.77072 0 1 1 -1.0276 -2.6931 0.51382 0.77072 0 1 1 1.0276 2.6931z" fill="url(#a)" filter="url(#dk)" opacity=".5"/>
   <path d="m84.535 69.391a1.2972 1.9458 0 1 1 -2.5944 1.2562 1.2972 1.9458 0 1 1 2.5944 -1.2562z" fill="url(#a)" filter="url(#dj)" opacity=".5"/>
   <path d="m85.987 66.023a0.48474 0.72712 0 1 1 -0.96951 -2.7146 0.48474 0.72712 0 1 1 0.96951 2.7146z" fill="url(#a)" filter="url(#di)" opacity=".5"/>
   <path d="m108.93 64.682a1.194 1.791 0 1 1 -2.388 1.6144 1.194 1.791 0 1 1 2.388 -1.6144z" fill="url(#a)" filter="url(#dh)" opacity=".5"/>
   <path d="m102.57 66.722a1.0115 1.5173 0 1 1 -2.0231 -2.0533 1.0115 1.5173 0 1 1 2.0231 2.0533z" fill="url(#a)" filter="url(#dg)" opacity=".5"/>
   <path d="m112.77 70.347a0.91482 1.3722 0 1 1 -1.8296 2.2274 0.91482 1.3722 0 1 1 1.8296 -2.2274z" fill="url(#a)" filter="url(#df)" opacity=".5"/>
   <path d="m108.03 74.381a0.3275 0.49124 0 1 1 0.65497 2.8071 0.3275 0.49124 0 1 1 -0.65497 -2.8071z" fill="url(#b)" filter="url(#de)" opacity=".5"/>
   <path d="m131.21 77.122a1.4412 2.1619 0 1 1 -2.8825 0 1.4412 2.1619 0 1 1 2.8825 0z" fill="url(#a)" filter="url(#dd)" opacity=".5"/>
   <path d="m128.12 75.167a2.0589 1.4412 0 1 1 -4.1179 0 2.0589 1.4412 0 1 1 4.1179 0z" fill="url(#a)" filter="url(#dc)" opacity=".5"/>
   <path d="m136.33 82.487a0.17876 0.26815 0 1 1 -0.35754 2.8602 0.17876 0.26815 0 1 1 0.35754 -2.8602z" fill="url(#a)" filter="url(#db)" opacity=".5"/>
   <path d="m142.25 87.349a1.3591 2.0386 0 1 1 -2.7182 0.95935 1.3591 2.0386 0 1 1 2.7182 -0.95935z" fill="url(#a)" filter="url(#da)" opacity=".5"/>
   <path d="m147.08 96.926a1.0454 1.568 0 1 1 -2.0907 1.9844 1.0454 1.568 0 1 1 2.0907 -1.9844z" fill="url(#a)" filter="url(#cz)" opacity=".5"/>
   <path d="m148.42 108.99a1.1507 1.7261 0 1 1 -2.3015 1.7355 1.1507 1.7261 0 1 1 2.3015 -1.7355z" fill="url(#a)" filter="url(#cy)" opacity=".5"/>
   <path d="m144.85 113.24a0.87271 1.3091 0 1 1 -1.7454 2.294 0.87271 1.3091 0 1 1 1.7454 -2.294z" fill="url(#a)" filter="url(#cx)" opacity=".5"/>
   <path d="m137.28 127.39a0.30926 0.4639 0 1 1 0.61853 2.8154 0.30926 0.4639 0 1 1 -0.61853 -2.8154z" fill="url(#b)" filter="url(#cw)" opacity=".5"/>
   <path d="m127.03 127.77a0.066303 0.099455 0 1 1 0.13263 2.8795 0.066303 0.099455 0 1 1 -0.13263 -2.8795z" fill="url(#b)" filter="url(#cv)" opacity=".5"/>
   <path d="m124.89 126.96a1.2983 1.9475 0 1 1 -2.5967 -1.2514 1.2983 1.9475 0 1 1 2.5967 1.2514z" fill="url(#a)" filter="url(#cu)" opacity=".5"/>
   <path d="m118.45 134.36a1.4412 2.1619 0 1 1 -2.8825 0 1.4412 2.1619 0 1 1 2.8825 0z" fill="url(#a)" filter="url(#ct)" opacity=".5"/>
   <path d="m112.19 137.7a0.33777 0.50665 0 1 1 -0.67554 2.8022 0.33777 0.50665 0 1 1 0.67554 -2.8022z" fill="url(#a)" filter="url(#cs)" opacity=".5"/>
   <path d="m106.72 136.83a0.008788 0.013182 0 1 1 -0.017578 2.8824 0.008788 0.013182 0 1 1 0.017578 -2.8824z" fill="url(#a)" filter="url(#cr)" opacity=".5"/>
   <path d="m88.871 138.99a1.1033 1.6549 0 1 1 -2.2065 1.8547 1.1033 1.6549 0 1 1 2.2065 -1.8547z" fill="url(#a)" filter="url(#cq)" opacity=".5"/>
   <path d="m85.054 135.92a1.4046 2.1069 0 1 1 -2.8092 -0.64581 1.4046 2.1069 0 1 1 2.8092 0.64581z" fill="url(#a)" filter="url(#cp)" opacity=".5"/>
   <path d="m66.186 123.51a1.0664 1.5997 0 1 1 -2.1329 1.939 1.0664 1.5997 0 1 1 2.1329 -1.939z" fill="url(#a)" filter="url(#co)" opacity=".5"/>
   <path d="m53.383 116.86a1.4412 2.1619 0 1 1 -2.8825 0 1.4412 2.1619 0 1 1 2.8825 0z" fill="url(#a)" filter="url(#cn)" opacity=".5"/>
   <path d="m55.87 106.87a1.2514 1.877 0 1 1 -2.5027 -1.4301 1.2514 1.877 0 1 1 2.5027 1.4301z" fill="url(#a)" filter="url(#cm)" opacity=".5"/>
   <path d="m64.152 99.966a1.2972 1.9458 0 1 1 -2.5944 1.2562 1.2972 1.9458 0 1 1 2.5944 -1.2562z" fill="url(#a)" filter="url(#cl)" opacity=".5"/>
   <path d="m65.307 96.268a1.0115 1.5173 0 1 1 -2.0231 -2.0533 1.0115 1.5173 0 1 1 2.0231 2.0533z" fill="url(#a)" filter="url(#ck)" opacity=".5"/>
  </g>
 </g>
</svg>
