<?xml version='1.0' encoding='utf-8'?>
<svg xmlns="http://www.w3.org/2000/svg" id="Hexels SVG Export" version="1.1"> <g id="Root" transform="matrix(1.000, 0.000, 0.000, 1.000, 0.000, -0.000)"> <g id="Layer 1" transform="matrix(1.000, 0.000, 0.000, 1.000, 0.000, -0.000)"> <path d="M 1073.87,100.00 L 935.30,180.00 L 935.30,300.00 L 866.02,340.00 L 1073.87,460.00 L 1281.71,340.00 L 1212.43,300.00 L 1212.43,340.00 L 1073.87,420.00 L 969.94,360.00 L 969.94,200.00 L 1073.87,140.00 L 1177.79,200.00 L 1212.43,180.00 L 1073.87,100.00 z " style="fill:#6fc3c9;fill-opacity:1.00"/> <path d="M 1073.87,140.00 L 969.94,200.00 L 1073.87,260.00 L 1177.79,200.00 L 1073.87,140.00 z " style="fill:#000000;fill-opacity:1.00"/> <path d="M 1212.43,180.00 L 1073.87,260.00 L 1073.87,420.00 L 1212.43,340.00 L 1212.43,180.00 z M 1143.15,260.00 L 1177.79,240.00 L 1177.79,320.00 L 1143.15,340.00 L 1143.15,260.00 z " style="fill:#1a366d;fill-opacity:1.00"/> <path d="M 969.94,200.00 L 969.94,360.00 L 1073.87,420.00 L 1073.87,260.00 L 969.94,200.00 z " style="fill:#4f92aa;fill-opacity:1.00"/> <path d="M 1177.79,240.00 L 1143.15,260.00 L 1143.15,340.00 L 1177.79,320.00 L 1177.79,240.00 z " style="fill:#33638b;fill-opacity:1.00"/> <path d="M 866.02,340.00 L 866.02,420.00 L 1073.87,540.00 L 1073.87,460.00 L 866.02,340.00 z " style="fill:#4f92aa;fill-opacity:1.00"/> <path d="M 1281.71,340.00 L 1073.87,460.00 L 1073.87,540.00 L 866.02,420.00 L 866.02,460.00 L 1073.87,580.00 L 1073.87,660.00 L 1039.23,680.00 L 1143.15,740.00 L 1039.23,800.00 L 969.94,760.00 L 969.94,880.00 L 1212.43,740.00 L 1212.43,500.00 L 1281.71,460.00 L 1281.71,340.00 z M 1143.15,540.00 L 1177.79,520.00 L 1177.79,680.00 L 1143.15,660.00 L 1143.15,540.00 z " style="fill:#1a366d;fill-opacity:1.00"/> <path d="M 935.30,500.00 L 935.30,580.00 L 831.38,640.00 L 762.10,600.00 L 658.18,660.00 L 866.02,780.00 L 969.94,720.00 L 866.02,660.00 L 969.94,600.00 L 969.94,520.00 L 935.30,500.00 z " style="fill:#6fc3c9;fill-opacity:1.00"/> <path d="M 969.94,520.00 L 969.94,600.00 L 866.02,660.00 L 969.94,720.00 L 1073.87,660.00 L 1073.87,580.00 L 969.94,520.00 z " style="fill:#4f92aa;fill-opacity:1.00"/> <path d="M 1177.79,520.00 L 1143.15,540.00 L 1143.15,660.00 L 1177.79,680.00 L 1177.79,520.00 z " style="fill:#33638b;fill-opacity:1.00"/> <path d="M 658.18,660.00 L 658.18,700.00 L 692.82,720.00 L 692.82,680.00 L 658.18,660.00 z " style="fill:#4f92aa;fill-opacity:1.00"/> <path d="M 623.54,680.00 L 519.61,740.00 L 727.46,860.00 L 831.38,800.00 L 623.54,680.00 z " style="fill:#6fc3c9;fill-opacity:1.00"/> <path d="M 692.82,680.00 L 692.82,720.00 L 831.38,800.00 L 866.02,780.00 L 692.82,680.00 z " style="fill:#33638b;fill-opacity:1.00"/> <path d="M 1039.23,680.00 L 935.30,740.00 L 935.30,940.00 L 866.02,980.00 L 866.02,1020.00 L 969.94,960.00 L 969.94,760.00 L 1039.23,800.00 L 1143.15,740.00 L 1039.23,680.00 z " style="fill:#33638b;fill-opacity:1.00"/> <path d="M 519.61,740.00 L 519.61,820.00 L 554.25,800.00 L 554.25,760.00 L 519.61,740.00 z " style="fill:#4f92aa;fill-opacity:1.00"/> <path d="M 935.30,740.00 L 866.02,780.00 L 866.02,980.00 L 935.30,940.00 L 935.30,740.00 z " style="fill:#4f92aa;fill-opacity:1.00"/> <path d="M 554.25,760.00 L 554.25,800.00 L 692.82,880.00 L 692.82,1080.00 L 727.46,1100.00 L 831.38,1040.00 L 831.38,800.00 L 796.74,820.00 L 796.74,1020.00 L 727.46,1060.00 L 727.46,860.00 L 554.25,760.00 z " style="fill:#33638b;fill-opacity:1.00"/> <path d="M 866.02,780.00 L 831.38,800.00 L 831.38,1000.00 L 866.02,1020.00 L 866.02,780.00 z " style="fill:#1a366d;fill-opacity:1.00"/> <path d="M 554.25,800.00 L 207.85,1000.00 L 207.85,1200.00 L 138.56,1240.00 L 346.41,1360.00 L 554.25,1240.00 L 484.97,1200.00 L 484.97,1240.00 L 346.41,1320.00 L 207.85,1240.00 L 242.49,1220.00 L 242.49,1020.00 L 588.89,820.00 L 554.25,800.00 z " style="fill:#6fc3c9;fill-opacity:1.00"/> <path d="M 588.89,820.00 L 242.49,1020.00 L 346.41,1080.00 L 692.82,880.00 L 588.89,820.00 z " style="fill:#4f92aa;fill-opacity:1.00"/> <path d="M 796.74,820.00 L 727.46,860.00 L 727.46,1060.00 L 796.74,1020.00 L 796.74,820.00 z " style="fill:#4f92aa;fill-opacity:1.00"/> <path d="M 692.82,880.00 L 346.41,1080.00 L 346.41,1320.00 L 484.97,1240.00 L 484.97,1160.00 L 658.18,1060.00 L 692.82,1080.00 L 692.82,880.00 z M 658.18,980.00 L 692.82,1000.00 L 450.33,1140.00 L 415.69,1120.00 L 658.18,980.00 z M 415.69,1160.00 L 450.33,1180.00 L 450.33,1220.00 L 415.69,1240.00 L 415.69,1160.00 z " style="fill:#1a366d;fill-opacity:1.00"/> <path d="M 658.18,980.00 L 415.69,1120.00 L 450.33,1140.00 L 692.82,1000.00 L 658.18,980.00 z " style="fill:#33638b;fill-opacity:1.00"/> <path d="M 242.49,1020.00 L 242.49,1220.00 L 207.85,1240.00 L 346.41,1320.00 L 346.41,1080.00 L 242.49,1020.00 z " style="fill:#33638b;fill-opacity:1.00"/> <path d="M 415.69,1160.00 L 415.69,1240.00 L 450.33,1220.00 L 450.33,1180.00 L 415.69,1160.00 z " style="fill:#33638b;fill-opacity:1.00"/> <path d="M 138.56,1240.00 L 138.56,1320.00 L 346.41,1440.00 L 346.41,1360.00 L 138.56,1240.00 z " style="fill:#4f92aa;fill-opacity:1.00"/> <path d="M 554.25,1240.00 L 346.41,1360.00 L 346.41,1440.00 L 138.56,1320.00 L 138.56,1360.00 L 346.41,1480.00 L 346.41,1600.00 L 484.97,1520.00 L 484.97,1400.00 L 554.25,1360.00 L 554.25,1240.00 z M 415.69,1440.00 L 450.33,1420.00 L 450.33,1500.00 L 415.69,1520.00 L 415.69,1440.00 z " style="fill:#1a366d;fill-opacity:1.00"/> <path d="M 207.85,1400.00 L 207.85,1520.00 L 242.49,1500.00 L 242.49,1420.00 L 207.85,1400.00 z " style="fill:#6fc3c9;fill-opacity:1.00"/> <path d="M 242.49,1420.00 L 242.49,1500.00 L 346.41,1560.00 L 346.41,1480.00 L 242.49,1420.00 z " style="fill:#4f92aa;fill-opacity:1.00"/> <path d="M 450.33,1420.00 L 415.69,1440.00 L 415.69,1520.00 L 450.33,1500.00 L 450.33,1420.00 z " style="fill:#33638b;fill-opacity:1.00"/> <path d="M 242.49,1500.00 L 207.85,1520.00 L 346.41,1600.00 L 346.41,1560.00 L 242.49,1500.00 z " style="fill:#33638b;fill-opacity:1.00"/> </g> <g id="Layer 2" transform="matrix(1.000, 0.000, 0.000, 1.000, 0.000, -0.000)"> <path d="M 866.02,540.00 L 831.38,560.00 L 1143.15,740.00 L 1177.79,720.00 L 866.02,540.00 z " style="fill:#d7d7d7;fill-opacity:1.00"/> <path d="M 831.38,560.00 L 831.38,680.00 L 1073.87,820.00 L 1073.87,1100.00 L 1143.15,1140.00 L 1143.15,740.00 L 831.38,560.00 z " style="fill:#b2b2b2;fill-opacity:1.00"/> <path d="M 1177.79,720.00 L 1143.15,740.00 L 1143.15,1140.00 L 1177.79,1120.00 L 1177.79,720.00 z " style="fill:#7c7c7c;fill-opacity:1.00"/> <path d="M 969.94,960.00 L 866.02,1020.00 L 1212.43,1220.00 L 1316.35,1160.00 L 1177.79,1080.00 L 1177.79,1120.00 L 1212.43,1140.00 L 1177.79,1160.00 L 1004.58,1060.00 L 1039.23,1040.00 L 1073.87,1060.00 L 1073.87,1020.00 L 969.94,960.00 z " style="fill:#a50000;fill-opacity:1.00"/> <path d="M 831.38,1000.00 L 831.38,1200.00 L 866.02,1220.00 L 900.66,1200.00 L 1212.43,1380.00 L 1212.43,1220.00 L 831.38,1000.00 z " style="fill:#7d0000;fill-opacity:1.00"/> <path d="M 1039.23,1040.00 L 1004.58,1060.00 L 1073.87,1100.00 L 1073.87,1060.00 L 1039.23,1040.00 z " style="fill:#490000;fill-opacity:1.00"/> <path d="M 1177.79,1120.00 L 1143.15,1140.00 L 1177.79,1160.00 L 1212.43,1140.00 L 1177.79,1120.00 z " style="fill:#490000;fill-opacity:1.00"/> <path d="M 1316.35,1160.00 L 1212.43,1220.00 L 1212.43,1380.00 L 1316.35,1320.00 L 1316.35,1160.00 z " style="fill:#490000;fill-opacity:1.00"/> <path d="M 969.94,1240.00 L 969.94,1280.00 L 1039.23,1320.00 L 1039.23,1800.00 L 1108.51,1760.00 L 1108.51,1480.00 L 1073.87,1460.00 L 1073.87,1300.00 L 969.94,1240.00 z " style="fill:#490000;fill-opacity:1.00"/> <path d="M 969.94,1280.00 L 969.94,1760.00 L 1039.23,1800.00 L 1039.23,1320.00 L 969.94,1280.00 z " style="fill:#7d0000;fill-opacity:1.00"/> <path d="M 1073.87,1300.00 L 1073.87,1460.00 L 1143.15,1500.00 L 1143.15,1340.00 L 1073.87,1300.00 z " style="fill:#b2b2b2;fill-opacity:1.00"/> <path d="M 1143.15,1340.00 L 1143.15,1500.00 L 1177.79,1480.00 L 1177.79,1360.00 L 1143.15,1340.00 z " style="fill:#7c7c7c;fill-opacity:1.00"/> </g> </g></svg>