<?xml version='1.0' encoding='utf-8'?>
<svg xmlns="http://www.w3.org/2000/svg" version="1.1" width="162px" height="116px" viewBox="450 997 162 116"> <g id="layer1"> <g style="fill:rgb(219,233,234); fill-opacity:1.0; stroke-linejoin: miter"> <path d="M449.999,996.8999C449.9727,996.8999,449.94748,996.91034,449.9289,996.92896C449.9103,996.9476,449.89987,996.9727,449.89987,996.999L449.90088,1113.0C449.90088,1113.0547,449.94525,1113.0991,450.0,1113.0991L612.001,1113.1001C612.0273,1113.1001,612.0524,1113.0896,612.07104,1113.071C612.08966,1113.0525,612.1001,1113.0272,612.1001,1113.001L612.0991,997.0C612.0991,996.94525,612.05475,996.9009,612.0,996.9009L449.999,996.8999 Z"/> </g> </g> <g id="layer2"> <g style="fill:rgb(76,80,81); fill-opacity:0.41568628; stroke-linejoin: miter"> <path d="M579.8767,1101.1401L579.4312,1101.4485Q576.26447,1102.3811,560.8994,1102.9402Q545.4281,1103.4985,524.46234,1103.3931Q504.4533,1103.2454,492.45676,1102.5293Q488.61295,1102.2981,486.12448,1102.0251L484.03302,1101.7444Q482.30945,1101.4548,482.29007,1101.1401Q482.8133,1100.1738,496.5813,1099.5325Q510.34927,1098.8909,531.0833,1098.8665Q551.8174,1098.8906,565.5854,1099.5325Q579.3534,1100.1738,579.8767,1101.1401"/> </g> <g style="fill:rgb(0,0,0); fill-opacity:1.0; stroke-linejoin: miter"> <path d="M548.2078,1070.4358L549.1029,1070.436L549.9981,1070.4365Q549.9981,1085.5088,549.9981,1100.581Q549.10297,1100.5813,548.2079,1100.582Q548.20776,1085.5088,548.2078,1070.4358"/> </g> <g style="fill:rgb(0,0,0); fill-opacity:1.0; stroke-linejoin: miter"> <path d="M539.3911,1071.3706L540.2556,1071.6028L541.1201,1071.835Q537.2191,1086.3933,533.3181,1100.9521Q532.45337,1100.721,531.5886,1100.4897Q535.49,1085.9299,539.3911,1071.3706"/> </g> <g style="fill:rgb(0,0,0); fill-opacity:1.0; stroke-linejoin: miter"> <path d="M557.0378,1071.834L558.7673,1071.3713L566.5693,1100.4885L564.8402,1100.9529L557.0378,1071.834"/> </g> <g style="fill:rgb(255,255,255); fill-opacity:1.0; stroke-linejoin: miter"> <path d="M527.62305,1021.04535L549.3811,1021.0458L571.1392,1021.04626Q571.1392,1048.0056,571.1392,1074.9648Q549.3811,1074.9653,527.62305,1074.9658Q527.62305,1048.0056,527.62305,1021.04535"/> </g> <g style="fill:rgb(255,181,145); fill-opacity:1.0; stroke-linejoin: miter"> <path d="M528.0825,1041.7712Q527.9856,1041.7673,527.8452,1041.9119Q527.80164,1041.9292,527.28925,1042.6465Q527.1735,1042.7942,527.0565,1042.9202Q526.9413,1043.0449,526.79834,1043.1792Q526.04004,1043.8352,526.0118,1043.8999Q525.7705,1044.1726,525.6916,1044.4937Q525.5936,1044.8677,525.6201,1045.4949L526.7976,1046.7554Q528.7183,1045.8542,529.1233,1045.5337Q529.236,1045.4497,529.3316,1045.3574Q529.80676,1044.8372,530.07074,1044.6213L531.64,1043.3604L531.98535,1043.0679Q532.30896,1042.7788,532.3426,1042.6284Q532.4077,1042.1196,531.8302,1042.2681Q531.62964,1042.3118,531.2361,1042.4573Q529.2859,1043.2334,529.12646,1043.2683Q528.5117,1043.4792,527.6191,1043.696Q528.2558,1042.9192,528.33136,1042.5383Q528.39526,1042.2664,528.3258,1042.0339Q528.2426,1041.7854,528.0924,1041.7715 Z"/> </g> <g style="fill:rgb(255,255,255); fill-opacity:1.0; stroke-linejoin: miter"> <path d="M525.277,1045.104L523.7853,1046.3989L525.60315,1048.7449Q526.3893,1048.1882,526.66223,1047.844Q526.9701,1047.4731,526.93884,1047.1157Q526.9078,1046.7642,526.5259,1046.3035Q526.2059,1045.9033,525.27734,1045.1042 Z"/> </g> <g style="fill:rgb(0,0,0); fill-opacity:1.0; stroke-linejoin: miter"> <path d="M506.84503,1097.2812L506.63837,1100.3694Q507.65363,1100.6565,508.21185,1100.741Q508.47427,1100.803,509.45242,1100.8003Q509.61905,1100.8108,509.77292,1100.8481Q509.93143,1100.888,510.08865,1100.9651L510.93643,1101.4302Q511.18784,1101.5579,511.4462,1101.6509Q512.04395,1101.863,512.7495,1101.9187Q514.01984,1102.0105,514.66943,1101.4673Q515.37854,1100.7947,514.7081,1100.2668Q514.5127,1100.1116,514.1767,1099.9524Q513.9751,1099.8442,512.9408,1099.4719Q512.7312,1099.3821,512.57715,1099.2605Q512.223,1099.0212,511.28165,1097.6057L506.84903,1097.2817 Z"/> </g> <g style="fill:rgb(0,0,0); fill-opacity:1.0; stroke-linejoin: miter"> <path d="M496.99127,1098.116Q496.9565,1098.676,496.77713,1099.0801Q496.68698,1099.2913,496.55695,1099.509L495.93088,1100.489Q495.78195,1100.7302,495.68234,1100.9294Q495.4556,1101.3765,495.47305,1101.7034Q495.56146,1102.7034,497.1869,1102.8306Q498.58575,1102.8799,499.2258,1102.4641Q499.43887,1102.321,499.51385,1102.0759Q499.54257,1101.9866,499.5556,1101.8572Q499.56802,1101.7927,499.5598,1101.3936Q499.56308,1101.3203,499.58725,1101.2881Q499.62213,1101.2485,499.67874,1101.2571L500.01965,1101.3354Q500.12854,1101.3545,500.22137,1101.3501Q500.4035,1101.3406,500.51978,1101.2432Q500.79172,1101.0215,500.75165,1100.311Q500.72278,1099.6218,500.46393,1098.3438L496.99136,1098.116 Z"/> </g> <g style="fill:rgb(0,0,0); fill-opacity:1.0; stroke-linejoin: miter"> <path d="M504.9787,1031.7795Q503.01712,1031.7393,502.33264,1033.1152Q501.9267,1033.8784,501.81027,1035.0938Q501.66922,1036.4612,501.8883,1037.5791L507.96622,1037.5Q508.14893,1037.3079,508.29828,1037.0383Q508.6633,1036.3616,508.62866,1035.0605Q508.57727,1034.0015,508.1152,1033.2615Q507.25848,1031.9297,504.98804,1031.78 Z"/> </g> <g style="fill:rgb(255,255,255); fill-opacity:1.0; stroke-linejoin: miter"> <path d="M501.8859,1040.883L500.98453,1041.9553L500.88437,1063.5532Q507.47858,1065.1589,509.74808,1064.428Q512.3218,1063.79,512.4037,1060.407Q512.6642,1057.0852,510.00497,1047.239L506.89767,1041.6157L506.83032,1041.4319L506.53964,1041.3823L505.79126,1043.8232L505.02008,1044.0078L504.90933,1044.7686L504.88995,1044.7717L503.35278,1044.0747L501.8928,1040.898 Z"/> </g> <g style="fill:rgb(0,0,0); fill-opacity:1.0; stroke-linejoin: miter"> <path d="M511.73038,1061.2229Q508.6577,1062.1946,506.36514,1062.3413Q503.57892,1062.551,498.45486,1062.1353L498.37946,1062.2458Q498.1333,1062.7476,497.75238,1069.8608Q497.39218,1076.3662,496.42532,1098.2368L500.72714,1098.4609Q501.4981,1085.9482,502.3481,1081.5901Q503.13452,1076.9077,505.51215,1072.103Q507.11563,1080.6987,507.25064,1085.1279Q507.49045,1089.5173,506.60373,1098.1335L511.51968,1097.8467L512.5663,1069.7166L511.73526,1061.2725 Z"/> </g> <g style="fill:rgb(0,0,0); fill-opacity:1.0; stroke-linejoin: miter"> <path d="M496.5923,1054.1299L496.29965,1058.0242L495.7528,1057.1038L496.58197,1054.1667 M501.20438,1041.6357Q498.7748,1043.1211,494.8557,1044.6707Q494.24014,1046.9443,493.813,1048.4019L492.33865,1053.2354L491.85577,1054.94Q491.36053,1056.7732,491.49524,1057.5432Q491.54922,1057.9702,491.82602,1058.4978Q492.816,1060.1648,495.323,1064.8687L495.79385,1064.7261L495.5641,1067.8691L498.1042,1069.0266Q501.1221,1064.0125,501.7302,1058.5051Q502.37476,1053.6589,501.20483,1041.6389 Z"/> </g> <g style="fill:rgb(0,0,0); fill-opacity:1.0; stroke-linejoin: miter"> <path d="M506.8474,1041.5747L512.15186,1066.8318Q513.2234,1067.2944,514.02344,1067.7971L514.60345,1066.5977L513.7112,1052.0508L517.4198,1054.2805Q517.76373,1054.3279,518.05493,1054.2563Q518.729,1054.4182,526.1798,1049.2383L523.9186,1046.0757Q521.2167,1048.2087,517.9704,1049.4141Q514.9755,1047.4231,514.03345,1046.384Q513.0355,1045.3704,512.4103,1043.4817L507.61255,1042.3301L506.85034,1041.5776 Z"/> </g> <g style="fill:rgb(255,181,145); fill-opacity:1.0; stroke-linejoin: miter"> <path d="M504.67548,1033.0349Q503.92526,1032.9058,503.27963,1033.9087Q502.78415,1034.6619,502.48962,1036.5552Q502.42065,1036.0488,502.28275,1035.8682Q502.1507,1035.6733,501.75858,1035.4849Q501.21838,1036.1023,501.2671,1036.7341Q501.3026,1037.4048,501.51898,1037.7952Q501.6508,1038.0574,502.03485,1038.041L501.90067,1041.1694L503.13843,1044.2156L504.9223,1044.9893L505.7492,1043.8472L506.63507,1041.9844L506.54056,1041.1804Q507.25833,1040.1929,507.43445,1039.6238Q507.47568,1039.5735,507.77298,1038.272Q508.2614,1037.1172,508.3133,1036.8008Q508.51187,1035.9783,508.50107,1035.3782Q508.4861,1034.7314,508.21155,1034.5815Q508.10748,1034.5146,507.91638,1034.4851Q507.134,1034.4309,507.0491,1034.4011Q506.84085,1034.3613,506.66623,1034.2852Q506.4768,1034.2048,506.21704,1034.0256L505.17804,1033.2542Q504.90677,1033.0813,504.67697,1033.0352 Z"/> </g> <g style="fill:rgb(250,84,34); fill-opacity:0.20784314; stroke-linejoin: miter"> <path d="M502.00958,1039.6597L504.61737,1044.8765L506.4133,1041.269Q505.8693,1041.7827,505.29385,1041.9226Q504.56485,1042.1099,503.9503,1041.8821Q503.49014,1041.7153,503.04153,1041.1904Q502.65305,1040.7451,502.0157,1039.6699 Z"/> </g> <g style="fill:rgb(255,255,255); fill-opacity:1.0; stroke-linejoin: miter"> <path d="M498.09213,1063.0085L495.90677,1064.656Q496.1877,1065.168,496.38712,1065.3694Q496.78122,1065.7893,497.28818,1065.4736Q497.76877,1065.2183,498.93573,1063.8801L498.0927,1063.009 Z"/> </g> <g style="fill:rgb(255,181,145); fill-opacity:1.0; stroke-linejoin: miter"> <path d="M500.16574,1063.8354Q499.106,1063.8083,498.87628,1063.8562L497.13425,1065.6042L498.66214,1068.0815Q499.42453,1066.7161,500.0925,1065.1499L500.40323,1064.7402Q501.53146,1064.8716,501.82944,1064.3215Q501.91,1064.0969,501.52893,1063.9824Q501.12057,1063.865,500.17462,1063.8357 Z"/> </g> <g style="fill:rgb(0,0,0); fill-opacity:0.4117647; stroke-linejoin: miter"> <path d="M502.27536,1043.6501L501.61176,1044.1428L503.4108,1044.5454L502.27545,1043.6501L502.27536,1043.6501 Z M506.88617,1043.2131L505.54684,1044.5771L507.3595,1043.6528L506.8872,1043.2141L506.88617,1043.2131 Z M504.73822,1045.103L506.36218,1062.3315Q506.2554,1059.7395,505.69287,1053.769Q505.2497,1049.0049,504.73923,1045.1101L504.73822,1045.103 Z"/> </g> <g> <g style="fill:rgb(34,43,50); fill-opacity:1.0; stroke-linejoin: miter"> <path d="M548.7455,1031.7612C548.5963,1032.0474,548.45575,1032.3904,548.371,1032.675C548.3346,1032.7966,548.29285,1032.9534,548.27625,1033.029C548.17725,1033.479,548.13916,1033.8457,548.14417,1034.2976C548.1461,1034.4683,548.1681,1034.7507,548.1937,1034.9348C548.2424,1035.2849,548.342,1035.6875,548.4579,1036.0054C548.6489,1036.5278,548.90295,1036.9949,549.22766,1037.4207C549.59375,1037.9009,550.01556,1038.2927,550.5415,1038.6404C550.6364,1038.7029,550.9505,1038.8833,551.04895,1038.9316C551.5011,1039.1531,551.9027,1039.2915,552.3664,1039.3853C552.973,1039.5083,553.5909,1039.5225,554.2114,1039.4277C554.6144,1039.3665,555.05774,1039.2429,555.4289,1039.0886C555.78125,1038.9424,556.06934,1038.7878,556.3809,1038.5776C556.7201,1038.3481,557.02094,1038.0901,557.2977,1037.7898C557.47595,1037.5969,557.65295,1037.3728,557.7931,1037.1621L557.8181,1037.1248L558.14166,1037.3105L558.4656,1037.4966L558.4091,1037.595C558.36597,1037.6699,558.3511,1037.6997,558.34546,1037.7192C558.3204,1037.8088,558.3434,1037.9082,558.405,1037.9775C558.42926,1038.0054,558.4304,1038.0059,558.553,1038.0779C558.62085,1038.1179,560.0937,1038.9658,561.8258,1039.9634C564.58276,1041.5503,564.97925,1041.7778,565.00525,1041.7861C565.04205,1041.7981,565.1045,1041.8025,565.1412,1041.7952C565.1761,1041.7883,565.21655,1041.771,565.24817,1041.7485C565.30054,1041.7124,565.2897,1041.7292,565.5906,1041.2026L565.86475,1040.7222L565.8695,1040.6909C565.8766,1040.6443,565.8744,1040.6064,565.8618,1040.5637C565.84937,1040.521,565.8352,1040.4937,565.8063,1040.4583L565.78656,1040.4343L565.1738,1040.0789C564.83636,1039.8835,563.3559,1039.0312,561.8832,1038.1846L559.2055,1036.6453L559.1753,1036.6396C559.0893,1036.6233,559.0051,1036.646,558.93744,1036.7029C558.912,1036.7244,558.9096,1036.7275,558.8489,1036.8308L558.78625,1036.9363L558.7534,1036.9138C558.735,1036.9019,558.58997,1036.8169,558.43115,1036.7258L558.14276,1036.5603L558.1771,1036.4897C558.21704,1036.4087,558.2618,1036.3069,558.3135,1036.179C558.3491,1036.0913,558.3584,1036.0662,558.40247,1035.9407C558.52625,1035.5891,558.61743,1035.1829,558.65967,1034.7947C558.67017,1034.7014,558.6864,1034.4646,558.68835,1034.385C558.6906,1034.292,558.6908,1034.2617,558.69055,1034.2036C558.6861,1033.363,558.4824,1032.5322,558.098,1031.7874C557.94666,1031.4946,557.76447,1031.2104,557.5612,1030.9512C557.236,1030.5366,556.84546,1030.1699,556.4144,1029.8733C556.1762,1029.7095,555.9125,1029.5581,555.6549,1029.4377C554.7121,1028.9954,553.65533,1028.8442,552.6215,1029.0039C551.99414,1029.1008,551.3867,1029.3096,550.8397,1029.6157C550.3899,1029.8672,550.0111,1030.1567,549.6393,1030.5322C549.557,1030.6152,549.4287,1030.7593,549.3403,1030.8672C549.2816,1030.9387,549.25433,1030.9736,549.16754,1031.0876C549.05176,1031.24,548.84717,1031.5664,548.7455,1031.7612 Z M550.185,1032.0144C550.4219,1031.669,550.6834,1031.3884,551.0056,1031.1345C551.38696,1030.8345,551.8175,1030.6104,552.28516,1030.4683C552.37335,1030.4419,552.3784,1030.4402,552.4763,1030.4163C552.7136,1030.3582,552.9174,1030.3264,553.1603,1030.31C553.80615,1030.2676,554.44904,1030.3865,555.04456,1030.6599C555.2125,1030.7366,555.464,1030.8774,555.5996,1030.97C555.994,1031.24,556.2991,1031.5312,556.5695,1031.8962C557.0271,1032.5142,557.296,1033.2756,557.32794,1034.0454C557.35596,1034.7087,557.2158,1035.362,556.91797,1035.9585C556.8768,1036.0408,556.7377,1036.2842,556.69275,1036.3518C556.6211,1036.4597,556.54675,1036.5647,556.4955,1036.6292C556.481,1036.6472,556.4564,1036.6777,556.4413,1036.697C556.2444,1036.9436,555.9553,1037.2139,555.67993,1037.4089C555.5188,1037.5234,555.3675,1037.6147,555.18475,1037.7075C554.19977,1038.21,553.03516,1038.2664,552.00085,1037.8613C551.8004,1037.7827,551.6935,1037.7305,551.46985,1037.6023C551.2504,1037.4761,551.16675,1037.4204,550.99585,1037.2869C550.2189,1036.6794,549.70087,1035.7942,549.54913,1034.815C549.48694,1034.4126,549.4883,1034.002,549.5532,1033.5972C549.614,1033.2192,549.7375,1032.8345,549.9053,1032.498C549.92596,1032.4568,549.94775,1032.4133,549.9536,1032.4016C549.9815,1032.345,550.1395,1032.081,550.185,1032.0144 Z"/> </g> <g style="fill:rgb(34,43,50); fill-opacity:1.0; stroke-linejoin: miter"> <path d="M537.85913,1029.8269C537.5625,1029.834,537.46246,1029.8425,537.4021,1029.8667C537.3607,1029.8821,537.271,1029.9028,537.20374,1029.9131C537.1382,1029.9219,537.0399,1029.9426,536.98816,1029.9563C536.76733,1030.02,536.4949,1030.1099,536.4621,1030.1289C536.4431,1030.1409,536.3777,1030.1702,536.31726,1030.196C536.25684,1030.2202,536.18787,1030.2546,536.16205,1030.272C536.1378,1030.2891,536.04987,1030.3479,535.9688,1030.4011C535.617,1030.6289,535.279,1031.0396,535.1427,1031.4033C535.122,1031.4602,535.09436,1031.531,535.08057,1031.5603C535.0686,1031.5913,535.0531,1031.6448,535.04614,1031.6812C535.041,1031.719,535.0203,1031.8018,535.00305,1031.8689C534.95996,1032.0381,534.9306,1032.5452,534.95306,1032.7781C534.98236,1033.0781,535.00134,1033.2161,535.02893,1033.2849C535.0427,1033.323,535.0737,1033.4194,535.0979,1033.5005C535.16345,1033.7195,535.4049,1034.1025,535.5636,1034.2388C535.5808,1034.2544,535.6394,1034.3042,535.6929,1034.3491C535.87573,1034.5078,536.2258,1034.7166,536.4362,1034.7922C536.49835,1034.8147,536.56384,1034.8423,536.5829,1034.8545C536.6018,1034.8665,536.64844,1034.8838,536.6863,1034.8943C536.72424,1034.9028,536.81055,1034.9287,536.8761,1034.9492C537.1383,1035.0305,537.9022,1035.208,538.16956,1035.2512C538.2075,1035.2563,538.2885,1035.2751,538.3506,1035.2925C538.41266,1035.3115,538.54895,1035.3408,538.65247,1035.3616C538.7576,1035.3823,538.8732,1035.4133,538.9112,1035.4304C538.9491,1035.4495,539.01984,1035.4719,539.06635,1035.4822C539.1836,1035.508,539.4475,1035.6375,539.5355,1035.7134C539.63556,1035.8013,539.7183,1035.9187,539.77527,1036.06C539.82007,1036.1704,539.82526,1036.1997,539.8252,1036.3877C539.82526,1036.5757,539.82007,1036.605,539.77527,1036.7188C539.6493,1037.031,539.36816,1037.2449,538.9542,1037.345C538.9215,1037.3518,538.8163,1037.3726,538.72144,1037.3916C538.41266,1037.4485,537.6366,1037.4277,537.2727,1037.3535C537.20715,1037.3413,537.11755,1037.3242,537.0744,1037.3191C537.03125,1037.312,536.94666,1037.2932,536.8847,1037.2759C536.82263,1037.2571,536.70355,1037.2258,536.6173,1037.2051C536.53284,1037.1846,536.4259,1037.1482,536.3811,1037.126C536.3362,1037.1052,536.28796,1037.0862,536.2759,1037.0862C536.2379,1037.0862,535.9878,1037.0034,535.962,1036.9827C535.9498,1036.9741,535.89124,1036.95,535.8308,1036.9292C535.71704,1036.8928,535.6929,1036.8826,535.33765,1036.7153C535.20483,1036.6516,535.1168,1036.6206,535.0979,1036.6274C535.0703,1036.638,535.0686,1036.6672,535.07886,1037.0398C535.0858,1037.2605,535.09094,1037.6501,535.091,1037.9089C535.09094,1038.4487,535.08405,1038.4263,535.2634,1038.4763C535.31525,1038.4902,535.38586,1038.5142,535.4187,1038.5264C535.4514,1038.54,535.5101,1038.5591,535.54803,1038.5693C535.58594,1038.5781,535.67566,1038.6023,535.74634,1038.6228C535.8171,1038.6418,535.92224,1038.6694,535.9792,1038.6833C536.0361,1038.697,536.1327,1038.7229,536.19476,1038.742C536.25684,1038.7607,536.35693,1038.7852,536.41895,1038.7935C536.4811,1038.804,536.56213,1038.8196,536.6001,1038.8281C536.63806,1038.8367,536.69666,1038.8455,536.72943,1038.8455C536.7622,1038.8455,536.845,1038.866,536.9105,1038.8884C536.9985,1038.9194,537.0675,1038.9316,537.16406,1038.9316C537.23645,1038.9316,537.3917,1038.9438,537.50903,1038.9592C537.6884,1038.9834,537.84186,1038.9868,538.48865,1038.9783C539.17334,1038.9695,539.2716,1038.9644,539.39404,1038.935C539.46985,1038.916,539.5786,1038.8955,539.6355,1038.8901C539.6924,1038.8833,539.7821,1038.8662,539.8338,1038.8506C539.8855,1038.835,539.9718,1038.8127,540.02356,1038.8005C540.2943,1038.7368,540.6909,1038.5608,540.9463,1038.3882C541.11523,1038.2761,541.38605,1038.0054,541.50336,1037.8296C541.6603,1037.5967,541.8345,1037.2051,541.8345,1037.0845C541.8345,1037.062,541.85345,1037.0085,541.87415,1036.9653C541.89655,1036.9224,541.9259,1036.8518,541.938,1036.8052C541.9638,1036.7068,541.9845,1036.6895,542.0052,1036.7463C542.0138,1036.7705,542.0276,1037.2258,542.03455,1037.7588C542.0449,1038.5349,542.05176,1038.7314,542.0708,1038.7505C542.088,1038.7695,542.19666,1038.773,542.63306,1038.7661C542.9279,1038.7627,543.7299,1038.7505,544.41284,1038.742C545.0959,1038.7314,545.87537,1038.7212,546.1461,1038.7161C546.417,1038.7109,547.0067,1038.7021,547.4586,1038.697C547.9105,1038.6902,548.2899,1038.6799,548.302,1038.6729C548.3193,1038.6626,548.3193,1038.4954,548.3055,1037.8726C548.29517,1037.4397,548.2813,1037.0776,548.2744,1037.0671C548.26404,1037.05,547.84674,1037.0518,546.51697,1037.0774C546.2807,1037.0828,545.6908,1037.0913,545.2062,1037.0967C544.32837,1037.1069,544.32666,1037.1069,544.28015,1037.0708C544.25073,1037.0466,544.2318,1037.012,544.2249,1036.969C544.2197,1036.9346,544.2146,1036.4807,544.21106,1035.9617L544.20593,1035.0183L544.2456,1034.9785L544.2853,1034.939L545.5218,1034.925C546.20135,1034.9182,547.0102,1034.906,547.319,1034.8992L547.8795,1034.8872L547.88464,1034.0957C547.88806,1033.4937,547.88293,1033.2988,547.86743,1033.2798C547.85016,1033.2573,547.8002,1033.2556,547.5603,1033.2642C547.4035,1033.2695,546.81885,1033.2781,546.2583,1033.2832C545.69946,1033.2883,545.03204,1033.2971,544.775,1033.3022C544.2922,1033.3125,544.2335,1033.3074,544.1991,1033.2437C544.1749,1033.1987,544.16455,1032.9158,544.161,1032.207L544.15765,1031.6138L544.2042,1031.5725C544.2473,1031.5361,544.26624,1031.5327,544.4612,1031.5327C544.5767,1031.5327,544.83026,1031.5276,545.02515,1031.5242C545.22003,1031.5188,545.97546,1031.5068,546.7068,1031.4983C547.7794,1031.4844,548.03815,1031.4758,548.0571,1031.4568C548.0761,1031.4377,548.0778,1031.2964,548.0675,1030.6462C548.0571,1029.9478,548.05194,1029.8562,548.02783,1029.846C548.01227,1029.8391,547.7554,1029.8374,547.4569,1029.8442C547.15857,1029.8494,546.1875,1029.8647,545.3011,1029.8752C542.06213,1029.915,541.9759,1029.9185,541.94836,1029.946C541.9276,1029.9685,541.9259,1030.103,541.9379,1030.929C541.9535,1031.9536,541.99316,1034.8718,541.9949,1035.1719C541.9983,1035.4546,541.96216,1035.5667,541.91895,1035.408C541.9087,1035.3684,541.8862,1035.3201,541.869,1035.3013C541.85004,1035.2822,541.81384,1035.196,541.7845,1035.1113C541.63104,1034.6406,541.29126,1034.2769,540.7393,1033.9939C540.6358,1033.9404,540.4962,1033.8765,540.42883,1033.8506C540.3634,1033.8267,540.2978,1033.7991,540.28577,1033.7886C540.2737,1033.7783,540.2219,1033.7593,540.17017,1033.7456C540.1184,1033.7334,540.03394,1033.7126,539.9839,1033.699C539.93384,1033.6868,539.87006,1033.6643,539.8424,1033.6506C539.81323,1033.6353,539.7407,1033.6145,539.67865,1033.604C539.4475,1033.5662,539.27686,1033.5334,539.19055,1033.5093C539.14056,1033.4954,539.05426,1033.478,538.9974,1033.4729C538.9404,1033.4661,538.8508,1033.4504,538.799,1033.4385C538.7473,1033.4263,538.6697,1033.4109,538.6266,1033.4058C538.48865,1033.3867,537.9695,1033.2747,537.7728,1033.2212C537.65906,1033.1902,537.55554,1033.1487,537.3589,1033.0591C537.2434,1033.0056,537.083,1032.8572,537.03125,1032.7573C537.0088,1032.7124,536.9795,1032.6106,536.9657,1032.5312C536.94495,1032.4089,536.94495,1032.3623,536.9623,1032.2312C536.98816,1032.0483,537.01917,1031.969,537.1089,1031.8501C537.2693,1031.6362,537.5969,1031.4844,538.00574,1031.4343C538.56104,1031.3672,538.7163,1031.362,538.9629,1031.4033C539.0492,1031.4172,539.17334,1031.4292,539.2389,1031.4292C539.30615,1031.4292,539.4061,1031.4377,539.463,1031.4482C539.51996,1031.4568,539.63385,1031.4758,539.7149,1031.4897C539.79767,1031.5017,539.8804,1031.5205,539.9011,1031.531C539.92004,1031.543,539.99255,1031.562,540.0616,1031.5742C540.234,1031.6069,540.59625,1031.7104,540.7911,1031.7844C540.85834,1031.8086,540.9515,1031.8433,540.99805,1031.8604C541.0464,1031.8777,541.12915,1031.9104,541.1826,1031.9346C541.27747,1031.9761,541.28265,1031.9778,541.2982,1031.9485C541.3085,1031.9292,541.3119,1031.6018,541.30505,1031.0774C541.2964,1030.3445,541.2912,1030.2322,541.2671,1030.2029C541.24805,1030.1787,541.20325,1030.165,541.11536,1030.1548C541.0481,1030.146,540.98254,1030.134,540.97217,1030.1272C540.9619,1030.1201,540.8981,1030.1082,540.83246,1030.0996C540.76697,1030.0908,540.69275,1030.0737,540.66693,1030.0598C540.6393,1030.0459,540.5721,1030.0305,540.51514,1030.0254C540.45825,1030.0183,540.3462,1030.0029,540.2651,1029.989C539.37335,1029.8391,538.818,1029.801,537.85913,1029.8269 Z"/> </g> <g style="fill:rgb(34,43,50); fill-opacity:1.0; stroke-linejoin: miter"> <path d="M560.72064,1026.4983C560.587,1026.4983,560.03064,1026.7288,558.17584,1027.5264C556.7772,1028.1292,555.65735,1028.636,555.69275,1028.6511C555.7283,1028.6665,556.25525,1028.7476,556.8684,1028.8235C557.48157,1028.8994,557.98834,1028.9705,557.9984,1028.9756C558.00684,1028.9839,557.70154,1029.5947,557.21326,1030.5518C557.0165,1030.9373,556.7899,1031.3789,556.54224,1031.8601C556.5423,1031.8601,556.5424,1031.8604,556.5425,1031.8604L556.54224,1031.8604C556.28827,1032.3533,556.01227,1032.8875,555.72314,1033.4448L555.27216,1034.3115L553.2604,1032.9331L551.25366,1031.5547L550.7622,1032.1375C550.353,1032.6304,549.93066,1033.1438,549.5513,1033.6079C549.5513,1033.6079,549.5513,1033.6082,549.5513,1033.6082L549.551,1033.6082C548.85016,1034.4653,548.2963,1035.1543,548.2446,1035.2332L548.2446,1035.2332C548.24133,1035.238,548.2401,1035.2407,548.24097,1035.2407C548.24133,1035.2407,548.2423,1035.24,548.2437,1035.2388C548.24426,1035.2383,548.24493,1035.238,548.2455,1035.2375C548.2455,1035.2375,548.2455,1035.2375,548.2455,1035.2373L548.2456,1035.2375C548.2661,1035.2222,548.2816,1035.2124,548.29333,1035.2124C548.3271,1035.2124,548.32983,1035.2932,548.32983,1035.5581L548.32983,1035.5967C548.36865,1035.7405,548.412,1035.8794,548.4579,1036.0054C548.47925,1036.0637,548.50134,1036.1213,548.5243,1036.1785L549.5206,1035.0159C549.5382,1034.9954,549.5557,1034.9751,549.5732,1034.9548C549.5731,1034.9546,549.5731,1034.9546,549.5731,1034.9546L549.57336,1034.9546C550.47205,1033.9082,551.2137,1033.0598,551.2385,1033.0598C551.2388,1033.0598,551.2391,1033.0598,551.2394,1033.0598C551.2694,1033.0598,551.54065,1033.301,551.8467,1033.602C554.3832,1036.0642,555.39777,1037.0237,555.47144,1037.0237C555.47296,1037.0237,555.4741,1037.0234,555.4748,1037.0225C555.50616,1036.9912,556.1669,1035.8313,557.30945,1033.8C557.30945,1033.7998,557.30945,1033.7998,557.30945,1033.7998L557.3097,1033.7998C557.5952,1033.2922,557.91077,1032.7305,558.2542,1032.1182C558.25415,1032.1182,558.2541,1032.1179,558.2541,1032.1179L558.2544,1032.1179C558.3152,1032.0095,558.3768,1031.8994,558.4393,1031.7878C558.9613,1030.8555,559.41736,1030.0598,559.4477,1030.0244C559.45197,1030.0203,559.45715,1030.0181,559.4636,1030.0181C559.52747,1030.0181,559.7115,1030.2336,560.213,1030.8962C560.59845,1031.4016,560.9197,1031.8135,560.9371,1031.8135C560.93726,1031.8135,560.93744,1031.8135,560.9376,1031.8132C560.96295,1031.793,560.78564,1026.5889,560.7552,1026.5127C560.7512,1026.5034,560.7407,1026.4983,560.72064,1026.4983 Z"/> </g> </g> <g style="fill:rgb(236,240,241); fill-opacity:1.0; stroke-linejoin: miter"> <path d="M532.6248,1045.2644L553.20245,1045.3965L553.047,1069.678L532.4695,1069.5461L532.6248,1045.2644 Z"/> </g> <g style="fill:rgb(236,240,241); fill-opacity:1.0; stroke-linejoin: miter"> <path d="M554.8281,1052.4316L554.8232,1053.2085L566.3996,1053.2822L566.40466,1052.5059L554.8281,1052.4316 Z"/> </g> <g style="fill:rgb(236,240,241); fill-opacity:1.0; stroke-linejoin: miter"> <path d="M554.8076,1055.6477L554.8027,1056.4246L569.2337,1056.5164L569.23865,1055.74L554.8076,1055.6477 Z"/> </g> <g style="fill:rgb(236,240,241); fill-opacity:1.0; stroke-linejoin: miter"> <path d="M554.7869,1058.8635L554.78204,1059.6404L569.2132,1059.7324L569.2182,1058.9558L554.7869,1058.8635 Z"/> </g> <g style="fill:rgb(236,240,241); fill-opacity:1.0; stroke-linejoin: miter"> <path d="M554.7663,1062.0798L554.7639,1062.4678L554.7614,1062.856Q558.81586,1062.8821,562.8702,1062.908L562.8753,1062.1316Q558.8208,1062.1055,554.7663,1062.0798 Z"/> </g> <g style="fill:rgb(0,0,0); fill-opacity:1.0; stroke-linejoin: miter"> <path d="M555.685,1053.8303L555.685,1053.8303L555.685,1053.831L555.685,1053.8303L555.685,1053.8303L555.685,1053.8303L555.685,1053.831Q555.685,1053.8303,555.685,1053.8303 Z"/> </g> <g style="fill:rgb(0,0,0); fill-opacity:1.0; stroke-linejoin: miter"> <path d="M555.685,1053.8303L555.685,1053.8303L555.685,1053.831L555.685,1053.8303L555.685,1053.8303L555.685,1053.8303L555.685,1053.831Q555.685,1053.8303,555.685,1053.8303 Z"/> </g> <g style="fill:rgb(255,0,0); fill-opacity:1.0; stroke-linejoin: miter"> <path d="M548.55164,1039.4963L548.5518,1039.4968L548.5518,1039.4968L548.5518,1039.4963L548.55164,1039.4968L548.5518,1039.4963L548.5518,1039.4968Q548.5518,1039.4963,548.55164,1039.4963 Z"/> </g> <g style="fill:rgb(247,178,57); fill-opacity:1.0; stroke-linejoin: miter"> <path d="M542.2794,1047.5791L541.8583,1055.2749L534.9249,1052.1257C534.9249,1049.3188,537.2003,1047.0435,540.0069,1047.0435C540.82446,1047.0432,541.597,1047.2363,542.2794,1047.5791 Z"/> </g> <g style="fill:rgb(249,84,40); fill-opacity:1.0; stroke-linejoin: miter"> <path d="M545.08905,1052.1252C545.08905,1052.8005,544.9585,1053.4441,544.7189,1054.0317L544.7174,1054.032L539.8254,1055.1299L540.0067,1052.1252L542.27924,1047.5791C543.9462,1048.4126,545.08905,1050.136,545.08905,1052.1252 Z"/> </g> <g style="fill:rgb(43,165,247); fill-opacity:1.0; stroke-linejoin: miter"> <path d="M544.7174,1054.0317L544.7189,1054.032C543.96515,1055.8936,542.1399,1057.2075,540.00684,1057.2075C537.20013,1057.2075,534.9249,1054.9321,534.9249,1052.1252L540.00684,1052.1257L544.7174,1054.0317 Z"/> </g> <g style="fill:rgb(247,178,57); fill-opacity:1.0; stroke-linejoin: miter"> <path d="M547.364,1058.2107L550.86365,1058.2107L550.86365,1067.8828L547.36395,1067.883L547.364,1058.2107 Z M547.364,1058.2107L550.86365,1058.2107L550.86365,1067.8828L547.36395,1067.883L547.364,1058.2107 Z M547.364,1058.2107L550.86365,1058.2107L550.86365,1067.8828L547.36395,1067.883L547.364,1058.2107 Z M547.364,1058.2107L550.86365,1058.2107L550.86365,1067.8828L547.36395,1067.883L547.364,1058.2107 Z"/> </g> <g style="fill:rgb(247,178,57); fill-opacity:1.0; stroke-linejoin: miter"> <path d="M540.9427,1061.2529L544.4425,1061.2529L544.44244,1067.8828L540.9426,1067.883L540.9427,1061.2529 Z M540.9427,1061.2529L544.4425,1061.2529L544.44244,1067.8828L540.9426,1067.883L540.9427,1061.2529 Z M540.9427,1061.2529L544.4425,1061.2529L544.44244,1067.8828L540.9426,1067.883L540.9427,1061.2529 Z M540.9427,1061.2529L544.4425,1061.2529L544.44244,1067.8828L540.9426,1067.883L540.9427,1061.2529 Z"/> </g> <g style="fill:rgb(43,165,247); fill-opacity:1.0; stroke-linejoin: miter"> <path d="M534.5212,1063.7546L538.021,1063.7546L538.021,1067.8828L534.5212,1067.883L534.5212,1063.7546 Z M534.5212,1063.7546L538.021,1063.7546L538.021,1067.8828L534.5212,1067.883L534.5212,1063.7546 Z M534.5212,1063.7546L538.021,1063.7546L538.021,1067.8828L534.5212,1067.883L534.5212,1063.7546 Z M534.5212,1063.7546L538.021,1063.7546L538.021,1067.8828L534.5212,1067.883L534.5212,1063.7546 Z"/> </g> </g> </svg>